<svg width="77" height="76" viewBox="0 0 77 76" fill="none" xmlns="http://www.w3.org/2000/svg">
<rect x="0.5" width="76" height="76" rx="38" fill="#E7F2FF"/>
<path d="M42.1179 49.1441C42.1179 51.4183 40.2743 53.2619 38.0001 53.2619C35.7259 53.2619 33.8823 51.4183 33.8823 49.1441C33.8823 46.8699 35.7259 45.0264 38.0001 45.0264C40.2743 45.0264 42.1179 46.8699 42.1179 49.1441Z" fill="#0077FF"/>
<path d="M34.1177 26.0457C35.1873 24.9761 36.5884 24.4401 37.9903 24.4376C39.3986 24.4351 40.8077 24.9712 41.8823 26.0457C42.9543 27.1177 43.4904 28.5228 43.4904 29.9279C43.4904 31.333 42.9543 32.7381 41.8823 33.8102C40.8077 34.8847 39.3986 35.4208 37.9903 35.4183L38 38.1635" stroke="#0077FF" stroke-width="5.49035" stroke-linecap="round" stroke-linejoin="round"/>
</svg>
