<svg width="128" height="24" viewBox="0 0 128 24" fill="none" xmlns="http://www.w3.org/2000/svg">
<path fill-rule="evenodd" clip-rule="evenodd" d="M18.2023 17.3808C16.9767 18.4091 15.3868 19.0298 13.6496 19.0298C9.77325 19.0298 6.63086 15.9393 6.63086 12.1269C6.63086 8.31445 9.77325 5.22388 13.6496 5.22388C15.3868 5.22388 16.9767 5.84463 18.2023 6.87292C19.4279 5.84463 21.0178 5.22388 22.755 5.22388C26.6314 5.22388 29.7738 8.31445 29.7738 12.1269C29.7738 15.9393 26.6314 19.0298 22.755 19.0298C21.0178 19.0298 19.4279 18.4091 18.2023 17.3808Z" fill="#ED0006"/>
<path fill-rule="evenodd" clip-rule="evenodd" d="M18.2021 17.3808C19.7112 16.1146 20.6681 14.2307 20.6681 12.1269C20.6681 10.0231 19.7112 8.13908 18.2021 6.87294C19.4278 5.84464 21.0176 5.22388 22.7549 5.22388C26.6312 5.22388 29.7736 8.31445 29.7736 12.1269C29.7736 15.9393 26.6312 19.0298 22.7549 19.0298C21.0176 19.0298 19.4278 18.4091 18.2021 17.3808Z" fill="#F9A000"/>
<path fill-rule="evenodd" clip-rule="evenodd" d="M18.2023 17.3809C19.7114 16.1148 20.6683 14.2308 20.6683 12.127C20.6683 10.0232 19.7114 8.13919 18.2023 6.87305C16.6932 8.13919 15.7363 10.0232 15.7363 12.127C15.7363 14.2308 16.6932 16.1148 18.2023 17.3809Z" fill="#FF5E00"/>
<path fill-rule="evenodd" clip-rule="evenodd" d="M57.0425 8.72168V8.72476C57.0393 8.72476 56.038 8.72168 55.771 9.64919C55.5263 10.4997 54.8366 12.8477 54.8175 12.9124H54.6268C54.6268 12.9124 53.9211 10.512 53.6732 9.6461C53.4062 8.7186 52.4018 8.72168 52.4018 8.72168H50.1133V15.7781H52.4018V11.5874H52.4972H52.5925L53.9275 15.7781H55.5168L56.8517 11.5905H57.0425V15.7781H59.331V8.72168H57.0425Z" fill="#4DB45E"/>
<path fill-rule="evenodd" clip-rule="evenodd" d="M65.4011 8.72168C65.4011 8.72168 64.7304 8.78023 64.4157 9.46122L62.7947 12.9124H62.604V8.72168H60.3154V15.7781H62.4768C62.4768 15.7781 63.1793 15.7165 63.494 15.0386L65.0832 11.5874H65.2739V15.7781H67.5625V8.72168H65.4011Z" fill="#4DB45E"/>
<path fill-rule="evenodd" clip-rule="evenodd" d="M68.5801 11.9265V15.7783H70.8686V13.5288H73.3479C74.4286 13.5288 75.344 12.8602 75.6841 11.9265H68.5801Z" fill="#4DB45E"/>
<path fill-rule="evenodd" clip-rule="evenodd" d="M73.3476 8.72168H68.2588C68.5131 10.0652 69.5524 11.1437 70.897 11.495C71.2021 11.5751 71.5231 11.6182 71.8537 11.6182H75.776C75.811 11.458 75.8268 11.2947 75.8268 11.1252C75.8268 9.79709 74.7175 8.72168 73.3476 8.72168Z" fill="url(#paint0_linear_671_9120)"/>
<path fill-rule="evenodd" clip-rule="evenodd" d="M102.929 16.2583H100.748L99.1129 10.1924C99.0352 9.91336 98.8704 9.66668 98.628 9.55042C98.0229 9.25824 97.3562 9.02572 96.6289 8.90845V8.67491H100.142C100.627 8.67491 100.991 9.02572 101.051 9.43314L101.9 13.8087L104.08 8.67491H106.2L102.929 16.2583ZM107.412 16.2582H105.352L107.048 8.67488H109.108L107.412 16.2582ZM111.773 10.7757C111.833 10.3673 112.197 10.1337 112.621 10.1337C113.288 10.0751 114.014 10.1924 114.62 10.4835L114.984 8.85081C114.378 8.61727 113.711 8.5 113.106 8.5C111.107 8.5 109.652 9.55041 109.652 11.0082C109.652 12.1173 110.683 12.6996 111.41 13.0504C112.197 13.4002 112.5 13.6338 112.439 13.9836C112.439 14.5082 111.833 14.7418 111.228 14.7418C110.501 14.7418 109.773 14.5669 109.108 14.2747L108.744 15.9085C109.471 16.1996 110.258 16.3169 110.986 16.3169C113.227 16.3745 114.62 15.3251 114.62 13.75C114.62 11.7665 111.773 11.6502 111.773 10.7757ZM121.828 16.2582L120.192 8.67488H118.436C118.072 8.67488 117.708 8.90842 117.587 9.25821L114.559 16.2582H116.679L117.102 15.1502H119.707L119.95 16.2582H121.828ZM118.741 10.717L119.346 13.5751H117.65L118.741 10.717Z" fill="#172B85"/>
<defs>
<linearGradient id="paint0_linear_671_9120" x1="68.2594" y1="10.1699" x2="75.8268" y2="10.1699" gradientUnits="userSpaceOnUse">
<stop offset="0.3" stop-color="#00B4E6"/>
<stop offset="1" stop-color="#088CCB"/>
</linearGradient>
</defs>
</svg>
