<svg width="0" height="0" class="hidden">
  <symbol fill="none" xmlns="http://www.w3.org/2000/svg" viewBox="0 0 25 24" id="catalog-gray">
    <g clip-path="url(#clip0_327_9604)">
      <circle cx="17.5" cy="7" r="3" stroke="#7F8A9B" stroke-width="2" stroke-linecap="round" stroke-linejoin="round"></circle>
      <circle cx="7.5" cy="17" r="3" stroke="#7F8A9B" stroke-width="2" stroke-linecap="round" stroke-linejoin="round"></circle>
      <path d="M14.5 14H20.5V19C20.5 19.5523 20.0523 20 19.5 20H15.5C14.9477 20 14.5 19.5523 14.5 19V14Z" stroke="#7F8A9B" stroke-width="2" stroke-linecap="round" stroke-linejoin="round"></path>
      <path d="M4.5 4H10.5V9C10.5 9.55228 10.0523 10 9.5 10H5.5C4.94772 10 4.5 9.55228 4.5 9V4Z" stroke="#7F8A9B" stroke-width="2" stroke-linecap="round" stroke-linejoin="round"></path>
    </g>
    <defs>
      <clipPath id="clip0_327_9604">
        <rect width="24" height="24" fill="white" transform="translate(0.5)"></rect>
      </clipPath>
    </defs>
  </symbol>
  <symbol fill="none" xmlns="http://www.w3.org/2000/svg" viewBox="0 0 24 24" id="wa">
    <path d="M1.80445 11.6703C1.80381 13.4791 2.27698 15.2449 3.17671 16.8016L1.71826 22.1203L7.16764 20.6931C8.66905 21.5103 10.3595 21.9417 12.0799 21.9422H12.0843C17.7498 21.9422 22.3612 17.3376 22.3637 11.6784C22.3647 8.93584 21.2964 6.35735 19.3555 4.41709C17.4149 2.47711 14.834 1.40815 12.0838 1.40686C6.41808 1.40686 1.80665 6.01086 1.80419 11.6704L1.80445 11.6703ZM12.0842 21.9422H12.0843H12.0842C12.084 21.9422 12.0839 21.9422 12.0842 21.9422Z" fill="#F2F2FD"></path>
    <path fill-rule="evenodd" clip-rule="evenodd" d="M9.42414 7.22184C9.22479 6.77928 9.01505 6.77042 8.82546 6.76264C8.67029 6.75605 8.49283 6.75648 8.31557 6.75648C8.1381 6.75648 7.84985 6.82299 7.60612 7.08891C7.36216 7.35485 6.6748 7.9977 6.6748 9.30511C6.6748 10.6126 7.62834 11.876 7.76118 12.0535C7.89426 12.2307 9.60186 14.9995 12.306 16.0646C14.5536 16.9498 15.011 16.7738 15.4988 16.7294C15.9866 16.6852 17.073 16.0868 17.2946 15.4662C17.5164 14.8458 17.5164 14.3139 17.4499 14.2028C17.3834 14.0921 17.2059 14.0256 16.9399 13.8928C16.6737 13.7599 15.3657 13.1169 15.1218 13.0282C14.8779 12.9397 14.7005 12.8954 14.523 13.1615C14.3457 13.4272 13.8361 14.0256 13.6808 14.2028C13.5257 14.3804 13.3704 14.4026 13.1043 14.2697C12.8382 14.1363 11.9813 13.856 10.9647 12.9508C10.1737 12.2464 9.63979 11.3766 9.48451 11.1105C9.32934 10.8448 9.46794 10.7009 9.60134 10.5684C9.72089 10.4493 9.8675 10.2581 10.0006 10.103C10.1333 9.94779 10.1776 9.83705 10.2663 9.65979C10.3551 9.48242 10.3107 9.32722 10.2442 9.19429C10.1776 9.06138 9.66057 7.74724 9.42398 7.22176" fill="#1BC100"></path>
  </symbol>
  <symbol fill="none" xmlns="http://www.w3.org/2000/svg" viewBox="0 0 42 42" id="stocks">
    <g clip-path="url(#clip0_266_4314)">
      <path d="M20.9998 5.25L34.6397 13.125V26.8543C34.6397 28.1047 33.9726 29.2601 32.8897 29.8854L22.7498 35.7396C21.6669 36.3649 20.3327 36.3649 19.2498 35.7396L9.10986 29.8854C8.02696 29.2601 7.35986 28.1047 7.35986 26.8543V13.125L20.9998 5.25Z" stroke="#0077FF" stroke-width="3.5" stroke-linecap="round" stroke-linejoin="round"></path>
      <path d="M21.0001 12.25V21L13.4224 25.375" stroke="#0077FF" stroke-width="3.5" stroke-linecap="round" stroke-linejoin="round"></path>
      <path d="M20.9999 21L28.5776 25.375" stroke="#0077FF" stroke-width="3.5" stroke-linecap="round" stroke-linejoin="round"></path>
    </g>
    <defs>
      <clipPath id="clip0_266_4314">
        <rect width="42" height="42" fill="white"></rect>
      </clipPath>
    </defs>
  </symbol>
  <symbol fill="none" xmlns="http://www.w3.org/2000/svg" viewBox="0 0 42 42" id="profile">
    <g clip-path="url(#clip0_207_4536)">
      <path d="M7 28.5C7 26.2909 8.79086 24.5 11 24.5H31C33.2091 24.5 35 26.2909 35 28.5V33C35 34.1046 34.1046 35 33 35H9C7.89543 35 7 34.1046 7 33V28.5Z" stroke="#0077FF" stroke-width="3.5" stroke-linejoin="round"></path>
      <circle cx="21" cy="12.25" r="5.25" stroke="#0077FF" stroke-width="3.5"></circle>
    </g>
    <defs>
      <clipPath id="clip0_207_4536">
        <rect width="42" height="42" fill="white"></rect>
      </clipPath>
    </defs>
  </symbol>
  <symbol fill="none" xmlns="http://www.w3.org/2000/svg" viewBox="0 0 24 24" id="arrow-down-black">
    <g clip-path="url(#clip0_207_4340)">
      <path d="M7 10L12 15L17 10" stroke="#1A1E24" stroke-width="2" stroke-linecap="round" stroke-linejoin="round"></path>
    </g>
    <defs>
      <clipPath id="clip0_207_4340">
        <rect width="24" height="24" fill="white"></rect>
      </clipPath>
    </defs>
  </symbol>
  <symbol fill="none" xmlns="http://www.w3.org/2000/svg" viewBox="0 0 42 42" id="cart-blue">
    <g clip-path="url(#clip0_207_4533)">
      <path d="M5.25 5.25C4.2835 5.25 3.5 6.0335 3.5 7C3.5 7.9665 4.2835 8.75 5.25 8.75V5.25ZM8.75 7L10.4928 6.84156C10.4109 5.94017 9.65511 5.25 8.75 5.25V7ZM36.75 12.25L38.4824 12.4975C38.5542 11.9953 38.4044 11.4866 38.072 11.1034C37.7397 10.7201 37.2573 10.5 36.75 10.5V12.25ZM9.22727 12.25L7.48446 12.4084L9.22727 12.25ZM13.9242 26.0054L13.7995 24.2599L13.9242 26.0054ZM10.1892 22.8312L8.44639 22.9896L10.1892 22.8312ZM5.25 8.75H8.75V5.25H5.25V8.75ZM14.0489 27.751L32.3085 26.4467L32.0591 22.9556L13.7995 24.2599L14.0489 27.751ZM37.1317 21.9525L38.4824 12.4975L35.0176 12.0025L33.6669 21.4575L37.1317 21.9525ZM7.00719 7.15844L7.48446 12.4084L10.9701 12.0916L10.4928 6.84156L7.00719 7.15844ZM7.48446 12.4084L8.44639 22.9896L11.932 22.6727L10.9701 12.0916L7.48446 12.4084ZM36.75 10.5H9.22727V14H36.75V10.5ZM32.3085 26.4467C34.7736 26.2706 36.7822 24.3991 37.1317 21.9525L33.6669 21.4575C33.5504 22.2731 32.8809 22.8969 32.0591 22.9556L32.3085 26.4467ZM13.7995 24.2599C12.8486 24.3278 12.0183 23.6221 11.932 22.6727L8.44639 22.9896C8.70531 25.8378 11.1962 27.9547 14.0489 27.751L13.7995 24.2599Z" fill="#0077FF"></path>
      <circle cx="14.875" cy="34.125" r="2.625" fill="#0077FF"></circle>
      <circle cx="30.625" cy="34.125" r="2.625" fill="#0077FF"></circle>
    </g>
    <defs>
      <clipPath id="clip0_207_4533">
        <rect width="42" height="42" fill="white"></rect>
      </clipPath>
    </defs>
  </symbol>
  <symbol fill="none" xmlns="http://www.w3.org/2000/svg" viewBox="0 0 42 42" id="cart-gray">
    <g clip-path="url(#clip0_207_4533)">
      <path d="M5.25 5.25C4.2835 5.25 3.5 6.0335 3.5 7C3.5 7.9665 4.2835 8.75 5.25 8.75V5.25ZM8.75 7L10.4928 6.84156C10.4109 5.94017 9.65511 5.25 8.75 5.25V7ZM36.75 12.25L38.4824 12.4975C38.5542 11.9953 38.4044 11.4866 38.072 11.1034C37.7397 10.7201 37.2573 10.5 36.75 10.5V12.25ZM9.22727 12.25L7.48446 12.4084L9.22727 12.25ZM13.9242 26.0054L13.7995 24.2599L13.9242 26.0054ZM10.1892 22.8312L8.44639 22.9896L10.1892 22.8312ZM5.25 8.75H8.75V5.25H5.25V8.75ZM14.0489 27.751L32.3085 26.4467L32.0591 22.9556L13.7995 24.2599L14.0489 27.751ZM37.1317 21.9525L38.4824 12.4975L35.0176 12.0025L33.6669 21.4575L37.1317 21.9525ZM7.00719 7.15844L7.48446 12.4084L10.9701 12.0916L10.4928 6.84156L7.00719 7.15844ZM7.48446 12.4084L8.44639 22.9896L11.932 22.6727L10.9701 12.0916L7.48446 12.4084ZM36.75 10.5H9.22727V14H36.75V10.5ZM32.3085 26.4467C34.7736 26.2706 36.7822 24.3991 37.1317 21.9525L33.6669 21.4575C33.5504 22.2731 32.8809 22.8969 32.0591 22.9556L32.3085 26.4467ZM13.7995 24.2599C12.8486 24.3278 12.0183 23.6221 11.932 22.6727L8.44639 22.9896C8.70531 25.8378 11.1962 27.9547 14.0489 27.751L13.7995 24.2599Z" fill="#7F8A9B"></path>
      <circle cx="14.875" cy="34.125" r="2.625" fill="#7F8A9B"></circle>
      <circle cx="30.625" cy="34.125" r="2.625" fill="#7F8A9B"></circle>
    </g>
    <defs>
      <clipPath id="clip0_207_4533">
        <rect width="42" height="42" fill="white"></rect>
      </clipPath>
    </defs>
  </symbol>
  <symbol fill="none" xmlns="http://www.w3.org/2000/svg" viewBox="0 0 42 42" id="delivery">
    <path d="M1.75 5.25C0.783502 5.25 -2.38419e-07 6.0335 -2.38419e-07 7C-2.38419e-07 7.9665 0.783502 8.75 1.75 8.75V5.25ZM26.25 7H28C28 6.0335 27.2165 5.25 26.25 5.25V7ZM26.25 14V12.25C25.7859 12.25 25.3408 12.4344 25.0126 12.7626C24.6844 13.0908 24.5 13.5359 24.5 14H26.25ZM35.7249 29.0251L36.9623 27.7877L35.7249 29.0251ZM35.7249 33.9749L36.9623 35.2123L35.7249 33.9749ZM3.5 28C3.5 27.0335 2.7165 26.25 1.75 26.25C0.783502 26.25 -2.38419e-07 27.0335 -2.38419e-07 28H3.5ZM1.75 8.75H26.25V5.25H1.75V8.75ZM24.5 7V31.5H28V7H24.5ZM26.25 15.75H33.25V12.25H26.25V15.75ZM38.5 21V28H42V21H38.5ZM28 31.5L28 14H24.5L24.5 31.5H28ZM34.4874 32.7374C33.804 33.4209 32.696 33.4209 32.0126 32.7374L29.5377 35.2123C31.5879 37.2626 34.9121 37.2626 36.9623 35.2123L34.4874 32.7374ZM32.0126 30.2626C32.696 29.5791 33.804 29.5791 34.4874 30.2626L36.9623 27.7877C34.9121 25.7374 31.5879 25.7374 29.5377 27.7877L32.0126 30.2626ZM11.7374 32.7374C11.054 33.4209 9.94598 33.4209 9.26256 32.7374L6.78769 35.2123C8.83794 37.2626 12.1621 37.2626 14.2123 35.2123L11.7374 32.7374ZM9.26256 30.2626C9.94598 29.5791 11.054 29.5791 11.7374 30.2626L14.2123 27.7877C12.1621 25.7374 8.83794 25.7374 6.78769 27.7877L9.26256 30.2626ZM34.4874 30.2626C34.8295 30.6046 35 31.0494 35 31.5H38.5C38.5 30.1591 37.9871 28.8125 36.9623 27.7877L34.4874 30.2626ZM35 31.5C35 31.9506 34.8295 32.3954 34.4874 32.7374L36.9623 35.2123C37.9871 34.1875 38.5 32.8409 38.5 31.5H35ZM29.75 29.75H26.25V33.25H29.75V29.75ZM32.0126 32.7374C31.6705 32.3954 31.5 31.9506 31.5 31.5H28C28 32.8409 28.5129 34.1875 29.5377 35.2123L32.0126 32.7374ZM31.5 31.5C31.5 31.0494 31.6705 30.6046 32.0126 30.2626L29.5377 27.7877C28.5129 28.8125 28 30.1591 28 31.5H31.5ZM9.26256 32.7374C8.92051 32.3954 8.75 31.9506 8.75 31.5H5.25C5.25 32.8409 5.76291 34.1875 6.78769 35.2123L9.26256 32.7374ZM8.75 31.5C8.75 31.0494 8.92051 30.6046 9.26256 30.2626L6.78769 27.7877C5.76291 28.8125 5.25 30.1591 5.25 31.5H8.75ZM7 29.75H5.1975V33.25H7V29.75ZM26.25 29.75H14V33.25H26.25V29.75ZM11.7374 30.2626C12.0795 30.6046 12.25 31.0494 12.25 31.5H15.75C15.75 30.1591 15.2371 28.8125 14.2123 27.7877L11.7374 30.2626ZM12.25 31.5C12.25 31.9506 12.0795 32.3954 11.7374 32.7374L14.2123 35.2123C15.2371 34.1875 15.75 32.8409 15.75 31.5H12.25ZM3.5 28.0525V28H-2.38419e-07V28.0525H3.5ZM38.5 28C38.5 28.9665 37.7165 29.75 36.75 29.75V33.25C39.6495 33.25 42 30.8995 42 28H38.5ZM33.25 15.75C36.1495 15.75 38.5 18.1005 38.5 21H42C42 16.1675 38.0825 12.25 33.25 12.25V15.75ZM5.1975 29.75C4.26 29.75 3.5 28.99 3.5 28.0525H-2.38419e-07C-2.38419e-07 30.923 2.327 33.25 5.1975 33.25V29.75Z" fill="#0077FF"></path>
    <path d="M1.75 14H8.75" stroke="#0077FF" stroke-width="3.5" stroke-linecap="round" stroke-linejoin="round"></path>
    <path d="M1.75 21H12.25" stroke="#0077FF" stroke-width="3.5" stroke-linecap="round" stroke-linejoin="round"></path>
  </symbol>
  <symbol fill="none" xmlns="http://www.w3.org/2000/svg" viewBox="0 0 42 42" id="delivery-white">
    <path d="M1.75 5.25C0.783502 5.25 -2.38419e-07 6.0335 -2.38419e-07 7C-2.38419e-07 7.9665 0.783502 8.75 1.75 8.75V5.25ZM26.25 7H28C28 6.0335 27.2165 5.25 26.25 5.25V7ZM26.25 14V12.25C25.7859 12.25 25.3408 12.4344 25.0126 12.7626C24.6844 13.0908 24.5 13.5359 24.5 14H26.25ZM35.7249 29.0251L36.9623 27.7877L35.7249 29.0251ZM35.7249 33.9749L36.9623 35.2123L35.7249 33.9749ZM3.5 28C3.5 27.0335 2.7165 26.25 1.75 26.25C0.783502 26.25 -2.38419e-07 27.0335 -2.38419e-07 28H3.5ZM1.75 8.75H26.25V5.25H1.75V8.75ZM24.5 7V31.5H28V7H24.5ZM26.25 15.75H33.25V12.25H26.25V15.75ZM38.5 21V28H42V21H38.5ZM28 31.5L28 14H24.5L24.5 31.5H28ZM34.4874 32.7374C33.804 33.4209 32.696 33.4209 32.0126 32.7374L29.5377 35.2123C31.5879 37.2626 34.9121 37.2626 36.9623 35.2123L34.4874 32.7374ZM32.0126 30.2626C32.696 29.5791 33.804 29.5791 34.4874 30.2626L36.9623 27.7877C34.9121 25.7374 31.5879 25.7374 29.5377 27.7877L32.0126 30.2626ZM11.7374 32.7374C11.054 33.4209 9.94598 33.4209 9.26256 32.7374L6.78769 35.2123C8.83794 37.2626 12.1621 37.2626 14.2123 35.2123L11.7374 32.7374ZM9.26256 30.2626C9.94598 29.5791 11.054 29.5791 11.7374 30.2626L14.2123 27.7877C12.1621 25.7374 8.83794 25.7374 6.78769 27.7877L9.26256 30.2626ZM34.4874 30.2626C34.8295 30.6046 35 31.0494 35 31.5H38.5C38.5 30.1591 37.9871 28.8125 36.9623 27.7877L34.4874 30.2626ZM35 31.5C35 31.9506 34.8295 32.3954 34.4874 32.7374L36.9623 35.2123C37.9871 34.1875 38.5 32.8409 38.5 31.5H35ZM29.75 29.75H26.25V33.25H29.75V29.75ZM32.0126 32.7374C31.6705 32.3954 31.5 31.9506 31.5 31.5H28C28 32.8409 28.5129 34.1875 29.5377 35.2123L32.0126 32.7374ZM31.5 31.5C31.5 31.0494 31.6705 30.6046 32.0126 30.2626L29.5377 27.7877C28.5129 28.8125 28 30.1591 28 31.5H31.5ZM9.26256 32.7374C8.92051 32.3954 8.75 31.9506 8.75 31.5H5.25C5.25 32.8409 5.76291 34.1875 6.78769 35.2123L9.26256 32.7374ZM8.75 31.5C8.75 31.0494 8.92051 30.6046 9.26256 30.2626L6.78769 27.7877C5.76291 28.8125 5.25 30.1591 5.25 31.5H8.75ZM7 29.75H5.1975V33.25H7V29.75ZM26.25 29.75H14V33.25H26.25V29.75ZM11.7374 30.2626C12.0795 30.6046 12.25 31.0494 12.25 31.5H15.75C15.75 30.1591 15.2371 28.8125 14.2123 27.7877L11.7374 30.2626ZM12.25 31.5C12.25 31.9506 12.0795 32.3954 11.7374 32.7374L14.2123 35.2123C15.2371 34.1875 15.75 32.8409 15.75 31.5H12.25ZM3.5 28.0525V28H-2.38419e-07V28.0525H3.5ZM38.5 28C38.5 28.9665 37.7165 29.75 36.75 29.75V33.25C39.6495 33.25 42 30.8995 42 28H38.5ZM33.25 15.75C36.1495 15.75 38.5 18.1005 38.5 21H42C42 16.1675 38.0825 12.25 33.25 12.25V15.75ZM5.1975 29.75C4.26 29.75 3.5 28.99 3.5 28.0525H-2.38419e-07C-2.38419e-07 30.923 2.327 33.25 5.1975 33.25V29.75Z" fill="#FFFFFF"></path>
    <path d="M1.75 14H8.75" stroke="#FFFFFF" stroke-width="3.5" stroke-linecap="round" stroke-linejoin="round"></path>
    <path d="M1.75 21H12.25" stroke="#FFFFFF" stroke-width="3.5" stroke-linecap="round" stroke-linejoin="round"></path>
  </symbol>
  <symbol fill="none" xmlns="http://www.w3.org/2000/svg" viewBox="0 0 31 30" id="compare">
    <g clip-path="url(#clip0_207_5273)">
      <path d="M23 5L23 25M15.5 12.5L15.5 25M8 20L8 25" stroke="#242328" stroke-width="2.5" stroke-linecap="round" stroke-linejoin="round"></path>
    </g>
    <defs>
      <clipPath id="clip0_207_5273">
        <rect width="30" height="30" fill="white" transform="translate(0.5)"></rect>
      </clipPath>
    </defs>
  </symbol>
  <symbol fill="none" xmlns="http://www.w3.org/2000/svg" viewBox="0 0 36 36" id="arrow-right-blue">
    <g clip-path="url(#clip0_207_4476)">
      <path d="M15 25.5L22.5 18L15 10.5" stroke="#0077FF" stroke-width="3" stroke-linecap="round" stroke-linejoin="round"></path>
    </g>
    <defs>
      <clipPath id="clip0_207_4476">
        <rect width="36" height="36" fill="white" transform="translate(0 36) rotate(-90)"></rect>
      </clipPath>
    </defs>
  </symbol>
  <symbol fill="none" xmlns="http://www.w3.org/2000/svg" viewBox="0 0 31 30" id="cart-black">
    <g clip-path="url(#clip0_207_5285)">
      <path d="M4.25 3.75C3.55964 3.75 3 4.30964 3 5C3 5.69036 3.55964 6.25 4.25 6.25V3.75ZM6.75 5L7.99487 4.88683C7.93633 4.24298 7.3965 3.75 6.75 3.75V5ZM26.75 8.75L27.9874 8.92678C28.0387 8.56805 27.9317 8.20475 27.6943 7.931C27.4569 7.65725 27.1124 7.5 26.75 7.5V8.75ZM7.09091 8.75L5.84604 8.86317L7.09091 8.75ZM23.4884 17.6437L23.3994 16.3969L23.4884 17.6437ZM25.7852 15.5036L24.5478 15.3268L25.7852 15.5036ZM4.25 6.25H6.75V3.75H4.25V6.25ZM10.5349 19.8221L23.5775 18.8905L23.3994 16.3969L10.3568 17.3285L10.5349 19.8221ZM27.0226 15.6804L27.9874 8.92678L25.5126 8.57322L24.5478 15.3268L27.0226 15.6804ZM5.50513 5.11317L5.84604 8.86317L8.33578 8.63683L7.99487 4.88683L5.50513 5.11317ZM5.84604 8.86317L6.53313 16.4212L9.02287 16.1948L8.33578 8.63683L5.84604 8.86317ZM26.75 7.5H7.09091V10H26.75V7.5ZM23.5775 18.8905C25.3383 18.7647 26.773 17.4279 27.0226 15.6804L24.5478 15.3268C24.4645 15.9093 23.9863 16.3549 23.3994 16.3969L23.5775 18.8905ZM10.3568 17.3285C9.67759 17.377 9.08451 16.873 9.02287 16.1948L6.53313 16.4212C6.71808 18.4556 8.49732 19.9677 10.5349 19.8221L10.3568 17.3285Z" fill="#242328"></path>
      <circle cx="11.125" cy="24.375" r="1.875" fill="#242328"></circle>
      <circle cx="22.375" cy="24.375" r="1.875" fill="#242328"></circle>
    </g>
    <defs>
      <clipPath id="clip0_207_5285">
        <rect width="30" height="30" fill="white" transform="translate(0.5)"></rect>
      </clipPath>
    </defs>
  </symbol>
  <symbol fill="none" xmlns="http://www.w3.org/2000/svg" viewBox="0 0 24 24" id="hamburger">
    <path d="M3 6H21M3 12H21M3 18H21" stroke="white" stroke-width="2" stroke-linecap="round" stroke-linejoin="round"></path>
  </symbol>
  <symbol fill="none" xmlns="http://www.w3.org/2000/svg" viewBox="0 0 24 24" id="search">
    <path d="M21 21L16.6569 16.6569M16.6569 16.6569C18.1046 15.2091 19 13.2091 19 11C19 6.58172 15.4183 3 11 3C6.58172 3 3 6.58172 3 11C3 15.4183 6.58172 19 11 19C13.2091 19 15.2091 18.1046 16.6569 16.6569Z" stroke="white" stroke-width="2" stroke-linecap="round" stroke-linejoin="round"></path>
  </symbol>
  <symbol fill="none" xmlns="http://www.w3.org/2000/svg" viewBox="0 0 24 24" id="search-gray">
    <path d="M21 21L16.6569 16.6569M16.6569 16.6569C18.1046 15.2091 19 13.2091 19 11C19 6.58172 15.4183 3 11 3C6.58172 3 3 6.58172 3 11C3 15.4183 6.58172 19 11 19C13.2091 19 15.2091 18.1046 16.6569 16.6569Z" stroke="#7F8A9B" stroke-width="2" stroke-linecap="round" stroke-linejoin="round"></path>
  </symbol>
  <symbol fill="none" xmlns="http://www.w3.org/2000/svg" viewBox="0 0 24 24" id="tg">
    <path d="M11.8635 22.6364C17.8132 22.6364 22.6363 17.8133 22.6363 11.8636C22.6363 5.91403 17.8132 1.09091 11.8635 1.09091C5.91393 1.09091 1.09082 5.91403 1.09082 11.8636C1.09082 17.8133 5.91393 22.6364 11.8635 22.6364Z" fill="#F2F2FD"></path>
    <path fill-rule="evenodd" clip-rule="evenodd" d="M5.96734 11.7501C9.10781 10.3818 11.202 9.4798 12.2498 9.04399C15.2415 7.79963 15.8631 7.58348 16.2683 7.57634C16.3574 7.57477 16.5567 7.59686 16.6857 7.70159C16.7947 7.79002 16.8247 7.90948 16.8391 7.99333C16.8534 8.07717 16.8713 8.26817 16.8571 8.41741C16.6949 10.1208 15.9935 14.2546 15.6366 16.1624C15.4856 16.9697 15.1882 17.2404 14.9004 17.2669C14.2748 17.3245 13.7997 16.8535 13.1938 16.4563C12.2457 15.8348 11.71 15.4479 10.7897 14.8414C9.72608 14.1405 10.4156 13.7553 11.0217 13.1257C11.1803 12.9609 13.9367 10.4538 13.9901 10.2264C13.9967 10.1979 14.0029 10.0919 13.9399 10.0359C13.877 9.97991 13.784 9.99906 13.7169 10.0143C13.6218 10.0359 12.1071 11.037 9.1729 13.0177C8.74297 13.3129 8.35355 13.4568 8.00464 13.4492C7.62 13.4409 6.8801 13.2317 6.33007 13.0529C5.65542 12.8336 5.11923 12.7177 5.16592 12.3453C5.19024 12.1513 5.45738 11.9529 5.96734 11.7501Z" fill="#49BEFF"></path>
  </symbol>
  <symbol fill="none" xmlns="http://www.w3.org/2000/svg" viewBox="0 0 42 42" id="flag">
    <g clip-path="url(#clip0_266_4307)">
      <path d="M14 5.25L14 8.75M14 36.75L14 22.75M14 8.75L35 8.75L31.5 15.75L35 22.75L14 22.75M14 8.75L14 22.75" stroke="#0077FF" stroke-width="3.5" stroke-linecap="round" stroke-linejoin="round"></path>
    </g>
    <defs>
      <clipPath id="clip0_266_4307">
        <rect width="42" height="42" fill="white"></rect>
      </clipPath>
    </defs>
  </symbol>
  <symbol fill="none" xmlns="http://www.w3.org/2000/svg" viewBox="0 0 24 24" id="vk">
    <path d="M0.727051 11.4182C0.727051 6.37842 0.727051 3.85856 2.2927 2.29291C3.85835 0.727264 6.3782 0.727264 11.418 0.727264H12.3089C17.3486 0.727264 19.8685 0.727264 21.4342 2.29291C22.9998 3.85856 22.9998 6.37842 22.9998 11.4182V12.3091C22.9998 17.3489 22.9998 19.8687 21.4342 21.4344C19.8685 23 17.3486 23 12.3089 23H11.418C6.3782 23 3.85835 23 2.2927 21.4344C0.727051 19.8687 0.727051 17.3489 0.727051 12.3091V11.4182Z" fill="#F2F2FD"></path>
    <path d="M12.5777 16.7727C7.50141 16.7727 4.606 13.2926 4.48535 7.50168H7.02816C7.11168 11.7521 8.98626 13.5524 10.4711 13.9237V7.50168H12.8655V11.1674C14.3318 11.0096 15.8722 9.33918 16.3919 7.50168H18.7862C18.3872 9.76607 16.7167 11.4365 15.5288 12.1233C16.7167 12.6801 18.6193 14.1371 19.3431 16.7727H16.7074C16.1413 15.0095 14.7309 13.6452 12.8655 13.4596V16.7727H12.5777Z" fill="#0F83FF"></path>
  </symbol>
  <symbol fill="none" xmlns="http://www.w3.org/2000/svg" viewBox="0 0 36 36" id="arrow-left-blue">
    <g clip-path="url(#clip0_207_4470)">
      <path d="M21 10.5L13.5 18L21 25.5" stroke="#0077FF" stroke-width="3" stroke-linecap="round" stroke-linejoin="round"></path>
    </g>
    <defs>
      <clipPath id="clip0_207_4470">
        <rect width="36" height="36" fill="white" transform="translate(36) rotate(90)"></rect>
      </clipPath>
    </defs>
  </symbol>
  <symbol fill="none" xmlns="http://www.w3.org/2000/svg" viewBox="0 0 42 42" id="deferment">
    <g clip-path="url(#clip0_207_4500)">
      <path d="M36.2136 16.9237C38.4649 25.3258 33.4788 33.9621 25.0767 36.2134C16.6746 38.4647 8.03828 33.4786 5.78694 25.0765C3.53561 16.6744 8.52178 8.03806 16.9239 5.78673C21.703 4.50616 26.5579 5.56719 30.2705 8.26654" stroke="#0077FF" stroke-width="3.5" stroke-linecap="round" stroke-linejoin="round"></path>
      <path d="M29.6016 2.38965L31.4133 9.15113L24.6518 10.9629" stroke="#0077FF" stroke-width="3.5" stroke-linecap="round" stroke-linejoin="round"></path>
      <path d="M15.9052 27.3563C15.6167 27.3563 15.3121 27.3349 14.9915 27.2922C14.6708 27.2601 14.3609 27.212 14.0617 27.1479C13.7624 27.0838 13.4899 27.0143 13.2441 26.9395C12.9983 26.8647 12.8059 26.7952 12.667 26.7311L13.1319 24.7433C13.4098 24.8608 13.7624 24.9891 14.1899 25.128C14.6281 25.2563 15.1678 25.3204 15.809 25.3204C16.5464 25.3204 17.0861 25.1814 17.4281 24.9036C17.7701 24.6257 17.9411 24.2517 17.9411 23.7814C17.9411 23.4929 17.877 23.2524 17.7488 23.06C17.6312 22.857 17.4655 22.6967 17.2518 22.5791C17.0381 22.4509 16.7816 22.3654 16.4823 22.3226C16.1938 22.2692 15.8838 22.2425 15.5525 22.2425H14.6227V20.3188H15.6808C15.9159 20.3188 16.1403 20.2974 16.3541 20.2547C16.5785 20.2119 16.7762 20.1424 16.9472 20.0463C17.1182 19.9394 17.2518 19.8004 17.348 19.6295C17.4549 19.4478 17.5083 19.2233 17.5083 18.9562C17.5083 18.7531 17.4655 18.5768 17.38 18.4271C17.2945 18.2775 17.1823 18.1546 17.0434 18.0584C16.9152 17.9622 16.7602 17.8928 16.5785 17.85C16.4075 17.7966 16.2312 17.7699 16.0495 17.7699C15.5899 17.7699 15.1625 17.8393 14.767 17.9783C14.3823 18.1172 14.0296 18.2882 13.709 18.4913L12.8594 16.7439C13.0304 16.637 13.2281 16.5248 13.4525 16.4073C13.6876 16.2897 13.9441 16.1828 14.222 16.0866C14.4998 15.9905 14.7937 15.9103 15.1037 15.8462C15.4243 15.7821 15.7609 15.75 16.1136 15.75C16.7655 15.75 17.3266 15.8302 17.7968 15.9905C18.2778 16.1401 18.6732 16.3592 18.9831 16.6477C19.2931 16.9256 19.5228 17.2569 19.6724 17.6416C19.8221 18.0157 19.8969 18.4271 19.8969 18.876C19.8969 19.3142 19.774 19.7417 19.5282 20.1585C19.2824 20.5646 18.9511 20.8745 18.5343 21.0883C19.1114 21.3234 19.5549 21.676 19.8648 22.1463C20.1854 22.6058 20.3457 23.1616 20.3457 23.8135C20.3457 24.3265 20.2602 24.8021 20.0892 25.2402C19.9183 25.6677 19.6511 26.0418 19.2877 26.3624C18.9243 26.6723 18.4594 26.9181 17.893 27.0998C17.3373 27.2708 16.6747 27.3563 15.9052 27.3563Z" fill="#0077FF"></path>
      <path d="M29.9219 21.5371C29.9219 23.4074 29.5639 24.8448 28.8478 25.8494C28.1425 26.8433 27.1646 27.3403 25.9142 27.3403C24.6638 27.3403 23.6806 26.8433 22.9645 25.8494C22.2592 24.8448 21.9065 23.4074 21.9065 21.5371C21.9065 20.6073 21.9973 19.7844 22.179 19.0684C22.3714 18.3523 22.6439 17.7485 22.9966 17.2569C23.3493 16.7653 23.7714 16.3912 24.263 16.1347C24.7546 15.8782 25.305 15.75 25.9142 15.75C27.1646 15.75 28.1425 16.2523 28.8478 17.2569C29.5639 18.2508 29.9219 19.6775 29.9219 21.5371ZM27.4852 21.5371C27.4852 20.9814 27.4585 20.4791 27.405 20.0302C27.3516 19.5707 27.2661 19.1752 27.1486 18.8439C27.031 18.5126 26.8707 18.2561 26.6676 18.0745C26.4646 17.8928 26.2134 17.8019 25.9142 17.8019C25.6149 17.8019 25.3638 17.8928 25.1607 18.0745C24.9684 18.2561 24.8081 18.5126 24.6798 18.8439C24.5623 19.1752 24.4768 19.5707 24.4233 20.0302C24.3699 20.4791 24.3432 20.9814 24.3432 21.5371C24.3432 22.0928 24.3699 22.6005 24.4233 23.06C24.4768 23.5196 24.5623 23.915 24.6798 24.2463C24.8081 24.5776 24.9684 24.8341 25.1607 25.0158C25.3638 25.1975 25.6149 25.2883 25.9142 25.2883C26.2134 25.2883 26.4646 25.1975 26.6676 25.0158C26.8707 24.8341 27.031 24.5776 27.1486 24.2463C27.2661 23.915 27.3516 23.5196 27.405 23.06C27.4585 22.6005 27.4852 22.0928 27.4852 21.5371Z" fill="#0077FF"></path>
    </g>
    <defs>
      <clipPath id="clip0_207_4500">
        <rect width="42" height="42" fill="white"></rect>
      </clipPath>
    </defs>
  </symbol>
  <symbol fill="none" xmlns="http://www.w3.org/2000/svg" viewBox="0 0 42 42" id="deferment-white">
    <g clip-path="url(#clip0_207_4500)">
      <path d="M36.2136 16.9237C38.4649 25.3258 33.4788 33.9621 25.0767 36.2134C16.6746 38.4647 8.03828 33.4786 5.78694 25.0765C3.53561 16.6744 8.52178 8.03806 16.9239 5.78673C21.703 4.50616 26.5579 5.56719 30.2705 8.26654" stroke="#FFFFFF" stroke-width="3.5" stroke-linecap="round" stroke-linejoin="round"></path>
      <path d="M29.6016 2.38965L31.4133 9.15113L24.6518 10.9629" stroke="#FFFFFF" stroke-width="3.5" stroke-linecap="round" stroke-linejoin="round"></path>
      <path d="M15.9052 27.3563C15.6167 27.3563 15.3121 27.3349 14.9915 27.2922C14.6708 27.2601 14.3609 27.212 14.0617 27.1479C13.7624 27.0838 13.4899 27.0143 13.2441 26.9395C12.9983 26.8647 12.8059 26.7952 12.667 26.7311L13.1319 24.7433C13.4098 24.8608 13.7624 24.9891 14.1899 25.128C14.6281 25.2563 15.1678 25.3204 15.809 25.3204C16.5464 25.3204 17.0861 25.1814 17.4281 24.9036C17.7701 24.6257 17.9411 24.2517 17.9411 23.7814C17.9411 23.4929 17.877 23.2524 17.7488 23.06C17.6312 22.857 17.4655 22.6967 17.2518 22.5791C17.0381 22.4509 16.7816 22.3654 16.4823 22.3226C16.1938 22.2692 15.8838 22.2425 15.5525 22.2425H14.6227V20.3188H15.6808C15.9159 20.3188 16.1403 20.2974 16.3541 20.2547C16.5785 20.2119 16.7762 20.1424 16.9472 20.0463C17.1182 19.9394 17.2518 19.8004 17.348 19.6295C17.4549 19.4478 17.5083 19.2233 17.5083 18.9562C17.5083 18.7531 17.4655 18.5768 17.38 18.4271C17.2945 18.2775 17.1823 18.1546 17.0434 18.0584C16.9152 17.9622 16.7602 17.8928 16.5785 17.85C16.4075 17.7966 16.2312 17.7699 16.0495 17.7699C15.5899 17.7699 15.1625 17.8393 14.767 17.9783C14.3823 18.1172 14.0296 18.2882 13.709 18.4913L12.8594 16.7439C13.0304 16.637 13.2281 16.5248 13.4525 16.4073C13.6876 16.2897 13.9441 16.1828 14.222 16.0866C14.4998 15.9905 14.7937 15.9103 15.1037 15.8462C15.4243 15.7821 15.7609 15.75 16.1136 15.75C16.7655 15.75 17.3266 15.8302 17.7968 15.9905C18.2778 16.1401 18.6732 16.3592 18.9831 16.6477C19.2931 16.9256 19.5228 17.2569 19.6724 17.6416C19.8221 18.0157 19.8969 18.4271 19.8969 18.876C19.8969 19.3142 19.774 19.7417 19.5282 20.1585C19.2824 20.5646 18.9511 20.8745 18.5343 21.0883C19.1114 21.3234 19.5549 21.676 19.8648 22.1463C20.1854 22.6058 20.3457 23.1616 20.3457 23.8135C20.3457 24.3265 20.2602 24.8021 20.0892 25.2402C19.9183 25.6677 19.6511 26.0418 19.2877 26.3624C18.9243 26.6723 18.4594 26.9181 17.893 27.0998C17.3373 27.2708 16.6747 27.3563 15.9052 27.3563Z" fill="#FFFFFF"></path>
      <path d="M29.9219 21.5371C29.9219 23.4074 29.5639 24.8448 28.8478 25.8494C28.1425 26.8433 27.1646 27.3403 25.9142 27.3403C24.6638 27.3403 23.6806 26.8433 22.9645 25.8494C22.2592 24.8448 21.9065 23.4074 21.9065 21.5371C21.9065 20.6073 21.9973 19.7844 22.179 19.0684C22.3714 18.3523 22.6439 17.7485 22.9966 17.2569C23.3493 16.7653 23.7714 16.3912 24.263 16.1347C24.7546 15.8782 25.305 15.75 25.9142 15.75C27.1646 15.75 28.1425 16.2523 28.8478 17.2569C29.5639 18.2508 29.9219 19.6775 29.9219 21.5371ZM27.4852 21.5371C27.4852 20.9814 27.4585 20.4791 27.405 20.0302C27.3516 19.5707 27.2661 19.1752 27.1486 18.8439C27.031 18.5126 26.8707 18.2561 26.6676 18.0745C26.4646 17.8928 26.2134 17.8019 25.9142 17.8019C25.6149 17.8019 25.3638 17.8928 25.1607 18.0745C24.9684 18.2561 24.8081 18.5126 24.6798 18.8439C24.5623 19.1752 24.4768 19.5707 24.4233 20.0302C24.3699 20.4791 24.3432 20.9814 24.3432 21.5371C24.3432 22.0928 24.3699 22.6005 24.4233 23.06C24.4768 23.5196 24.5623 23.915 24.6798 24.2463C24.8081 24.5776 24.9684 24.8341 25.1607 25.0158C25.3638 25.1975 25.6149 25.2883 25.9142 25.2883C26.2134 25.2883 26.4646 25.1975 26.6676 25.0158C26.8707 24.8341 27.031 24.5776 27.1486 24.2463C27.2661 23.915 27.3516 23.5196 27.405 23.06C27.4585 22.6005 27.4852 22.0928 27.4852 21.5371Z" fill="#FFFFFF"></path>
    </g>
    <defs>
      <clipPath id="clip0_207_4500">
        <rect width="42" height="42" fill="white"></rect>
      </clipPath>
    </defs>
  </symbol>
  <symbol fill="none" xmlns="http://www.w3.org/2000/svg" viewBox="0 0 31 30" id="like">
    <g clip-path="url(#clip0_207_5279)">
      <path d="M24.3388 16.4278L17.2678 23.4988C16.2914 24.4752 14.7085 24.4752 13.7322 23.4988L6.66115 16.4278C4.22037 13.987 4.22037 10.0297 6.66115 7.58894C9.10193 5.14817 13.0592 5.14817 15.5 7.58894C17.9408 5.14817 21.898 5.14817 24.3388 7.58894C26.7796 10.0297 26.7796 13.987 24.3388 16.4278Z" stroke="#242328" stroke-width="2.5" stroke-linecap="round" stroke-linejoin="round"></path>
    </g>
    <defs>
      <clipPath id="clip0_207_5279">
        <rect width="30" height="30" fill="white" transform="translate(0.5)"></rect>
      </clipPath>
    </defs>
  </symbol>
  <symbol fill="none" xmlns="http://www.w3.org/2000/svg" viewBox="0 0 32 32" id="arrow-down-gray">
    <g clip-path="url(#clip0_207_4695)">
      <path d="M22.6665 13.3333L15.9998 20L9.33317 13.3333" stroke="#ADB3BE" stroke-width="2.66667" stroke-linecap="round" stroke-linejoin="round"></path>
    </g>
    <defs>
      <clipPath id="clip0_207_4695">
        <rect width="32" height="32" fill="white" transform="matrix(-1 -8.74228e-08 -8.74228e-08 1 32 0)"></rect>
      </clipPath>
    </defs>
  </symbol>
  <symbol fill="none" xmlns="http://www.w3.org/2000/svg" viewBox="0 0 42 42" id="card">
    <path d="M5.25 15.75H21H36.75M5.25 8.75H36.75V29.75C36.75 31.683 35.183 33.25 33.25 33.25H8.75C6.817 33.25 5.25 31.683 5.25 29.75V8.75Z" stroke="#0077FF" stroke-width="3.5" stroke-linecap="round" stroke-linejoin="round"></path>
    <path d="M12.25 22.75H17.5" stroke="#0077FF" stroke-width="3.5" stroke-linecap="round" stroke-linejoin="round"></path>
  </symbol>
  <symbol fill="none" xmlns="http://www.w3.org/2000/svg" viewBox="0 0 42 42" id="card-white">
    <path d="M5.25 15.75H21H36.75M5.25 8.75H36.75V29.75C36.75 31.683 35.183 33.25 33.25 33.25H8.75C6.817 33.25 5.25 31.683 5.25 29.75V8.75Z" stroke="#FFFFFF" stroke-width="3.5" stroke-linecap="round" stroke-linejoin="round"></path>
    <path d="M12.25 22.75H17.5" stroke="#FFFFFF" stroke-width="3.5" stroke-linecap="round" stroke-linejoin="round"></path>
  </symbol>
  <symbol fill="none" xmlns="http://www.w3.org/2000/svg" viewBox="0 0 24 24" id="gm">
    <path d="M9.13037 17.5117C9.79451 18.3423 10.4709 19.3867 10.8249 20.0175C11.256 20.8376 11.4347 21.3914 11.7554 22.3832C11.9429 22.9264 12.1216 23.0912 12.4966 23.0912C12.9067 23.0912 13.0942 22.8143 13.2379 22.3832C13.5375 21.4527 13.7688 20.7448 14.1351 20.0701C15.5475 17.4065 17.85 15.514 19.1468 12.9206C19.1468 12.9206 20.0002 11.3364 20.0002 9.11797C20.0002 7.0502 19.159 5.61328 19.159 5.61328L9.13563 17.5292L9.13037 17.5117Z" fill="#34A853"></path>
    <path d="M5.73102 12.6399C6.53885 14.4799 8.07916 16.092 9.13056 17.5114L14.703 10.9051C14.703 10.9051 13.9162 11.9355 12.4951 11.9355C10.9109 11.9355 9.62122 10.6738 9.62122 9.07916C9.62122 7.9822 10.2748 7.22168 10.2748 7.22168C6.17436 7.8315 6.40216 8.82507 5.71875 12.6364L5.73102 12.6399Z" fill="#FBBC04"></path>
    <path d="M14.7727 1.91016C16.6302 2.50771 18.2073 3.76764 19.1536 5.6076L14.7026 10.9172C14.7026 10.9172 15.3563 10.1532 15.3563 9.05972C15.3563 7.43179 13.9824 6.2034 12.4999 6.2034C11.0928 6.2034 10.292 7.22151 10.292 7.22151C10.6337 6.44347 14.1647 2.17476 14.778 1.91191L14.7727 1.91016Z" fill="#4285F4"></path>
    <path d="M6.74707 4.24651C7.85455 2.92875 9.79615 1.56543 12.4772 1.56543C13.7722 1.56543 14.7553 1.90889 14.7553 1.90889L10.2868 7.21849C9.9854 7.05499 7.04497 4.76521 6.74707 4.23951V4.24651Z" fill="#1A73E8"></path>
    <path d="M5.73073 12.6399C5.73073 12.6399 5 11.1889 5 9.10014C5 7.11999 5.77454 5.38517 6.75234 4.26367L10.2921 7.24265L5.73598 12.6399H5.73073Z" fill="#EA4335"></path>
  </symbol>
  <symbol fill="none" xmlns="http://www.w3.org/2000/svg" viewBox="0 0 42 42" id="gear">
    <circle cx="21" cy="21" r="3.5" stroke="#0077FF" stroke-width="3.5"></circle>
    <path d="M9.44718 10.2887C7.82014 12.0423 6.63868 14.1234 5.95076 16.3531L10.9996 19.268C12.3329 20.0378 12.3329 21.9623 10.9996 22.7321L5.94777 25.6488C6.28939 26.7513 6.75832 27.8333 7.3598 28.875C7.96125 29.9168 8.66375 30.8638 9.44776 31.711L14.4996 28.7943C15.8329 28.0245 17.4996 28.9867 17.4996 30.5263L17.4996 36.3563C19.7745 36.8753 22.1675 36.8927 24.4998 36.3605L24.4998 30.5265C24.4998 28.9869 26.1664 28.0246 27.4998 28.7944L32.5522 31.7114C34.1792 29.9578 35.3607 27.8767 36.0486 25.647L30.9997 22.732C29.6664 21.9622 29.6664 20.0377 30.9997 19.2679L36.0516 16.3512C35.71 15.2487 35.2411 14.1668 34.6396 13.125C34.0381 12.0833 33.3356 11.1362 32.5516 10.2891L27.4998 13.2057C26.1664 13.9755 24.4998 13.0133 24.4998 11.4737L24.4998 5.6438C22.2249 5.12474 19.8318 5.10735 17.4996 5.63958L17.4996 11.4736C17.4996 13.0132 15.8329 13.9755 14.4996 13.2057L9.44718 10.2887Z" stroke="#0077FF" stroke-width="3.5" stroke-linejoin="round"></path>
  </symbol>
  <symbol fill="none" xmlns="http://www.w3.org/2000/svg" viewBox="0 0 42 42" id="gear-white">
    <circle cx="21" cy="21" r="3.5" stroke="#FFFFFF" stroke-width="3.5"></circle>
    <path d="M9.44718 10.2887C7.82014 12.0423 6.63868 14.1234 5.95076 16.3531L10.9996 19.268C12.3329 20.0378 12.3329 21.9623 10.9996 22.7321L5.94777 25.6488C6.28939 26.7513 6.75832 27.8333 7.3598 28.875C7.96125 29.9168 8.66375 30.8638 9.44776 31.711L14.4996 28.7943C15.8329 28.0245 17.4996 28.9867 17.4996 30.5263L17.4996 36.3563C19.7745 36.8753 22.1675 36.8927 24.4998 36.3605L24.4998 30.5265C24.4998 28.9869 26.1664 28.0246 27.4998 28.7944L32.5522 31.7114C34.1792 29.9578 35.3607 27.8767 36.0486 25.647L30.9997 22.732C29.6664 21.9622 29.6664 20.0377 30.9997 19.2679L36.0516 16.3512C35.71 15.2487 35.2411 14.1668 34.6396 13.125C34.0381 12.0833 33.3356 11.1362 32.5516 10.2891L27.4998 13.2057C26.1664 13.9755 24.4998 13.0133 24.4998 11.4737L24.4998 5.6438C22.2249 5.12474 19.8318 5.10735 17.4996 5.63958L17.4996 11.4736C17.4996 13.0132 15.8329 13.9755 14.4996 13.2057L9.44718 10.2887Z" stroke="#FFFFFF" stroke-width="3.5" stroke-linejoin="round"></path>
  </symbol>
  <symbol fill="none" xmlns="http://www.w3.org/2000/svg" viewBox="0 0 18 19" id="star">
    <g clip-path="url(#clip0_207_4569)">
      <path d="M8.26942 2.3515C8.53748 1.77034 9.36345 1.77034 9.63151 2.3515L11.348 6.07283C11.4572 6.30968 11.6817 6.47276 11.9407 6.50347L16.0103 6.98599C16.6459 7.06135 16.9011 7.84689 16.4312 8.28141L13.4225 11.0638C13.231 11.2409 13.1452 11.5048 13.1961 11.7606L13.9948 15.7802C14.1195 16.4079 13.4513 16.8934 12.8928 16.5808L9.3168 14.5791C9.08919 14.4517 8.81174 14.4517 8.58414 14.5791L5.00813 16.5808C4.44967 16.8934 3.78145 16.4079 3.90618 15.7802L4.70486 11.7606C4.75569 11.5048 4.66996 11.2409 4.47845 11.0638L1.46968 8.28141C0.999809 7.84689 1.25505 7.06135 1.89059 6.98599L5.96021 6.50347C6.21923 6.47276 6.44369 6.30968 6.55294 6.07283L8.26942 2.3515Z" fill="#FFA114"></path>
    </g>
    <defs>
      <clipPath id="clip0_207_4569">
        <rect width="18" height="18" fill="white" transform="translate(0 0.5)"></rect>
      </clipPath>
    </defs>
  </symbol>
  <symbol fill="none" xmlns="http://www.w3.org/2000/svg" viewBox="0 0 24 24" id="ym">
    <path d="M12 1.5C7.0293 1.5 3 5.5293 3 10.5C3 12.9845 4.00665 15.234 5.63475 16.8626C7.2633 18.492 11.1 20.85 11.325 23.325C11.3587 23.6961 11.6274 24 12 24C12.3726 24 12.6413 23.6961 12.675 23.325C12.9 20.85 16.7367 18.492 18.3652 16.8626C19.9933 15.234 21 12.9845 21 10.5C21 5.5293 16.9707 1.5 12 1.5Z" fill="#FF4433"></path>
    <path d="M12.0001 13.6506C13.7398 13.6506 15.1501 12.2403 15.1501 10.5006C15.1501 8.76089 13.7398 7.35059 12.0001 7.35059C10.2604 7.35059 8.8501 8.76089 8.8501 10.5006C8.8501 12.2403 10.2604 13.6506 12.0001 13.6506Z" fill="white"></path>
  </symbol>
  <symbol fill="none" xmlns="http://www.w3.org/2000/svg" viewBox="0 0 30 30" id="compare-gray">
    <g clip-path="url(#clip0_313_334)">
      <path d="M22.5 5L22.5 25M15 12.5L15 25M7.5 20L7.5 25" stroke="#7F8A9B" stroke-width="2.5" stroke-linecap="round" stroke-linejoin="round"></path>
    </g>
    <defs>
      <clipPath id="clip0_313_334">
        <rect width="30" height="30" fill="white"></rect>
      </clipPath>
    </defs>
  </symbol>
  <symbol fill="none" xmlns="http://www.w3.org/2000/svg" viewBox="0 0 30 30" id="like-gray">
    <g clip-path="url(#clip0_313_338)">
      <path d="M23.8388 16.4277L16.7678 23.4988C15.7914 24.4751 14.2085 24.4751 13.2322 23.4988L6.16115 16.4277C3.72037 13.9869 3.72037 10.0297 6.16115 7.58888C8.60193 5.14811 12.5592 5.14811 15 7.58888C17.4408 5.14811 21.398 5.14811 23.8388 7.58888C26.2796 10.0297 26.2796 13.9869 23.8388 16.4277Z" stroke="#7F8A9B" stroke-width="2.5" stroke-linecap="round" stroke-linejoin="round"></path>
    </g>
    <defs>
      <clipPath id="clip0_313_338">
        <rect width="30" height="30" fill="white"></rect>
      </clipPath>
    </defs>
  </symbol>
  <symbol fill="none" xmlns="http://www.w3.org/2000/svg" viewBox="0 0 30 30" id="compare-blue">
    <g clip-path="url(#clip0_313_334)">
      <path d="M22.5 5L22.5 25M15 12.5L15 25M7.5 20L7.5 25" stroke="#0077FF" stroke-width="2.5" stroke-linecap="round" stroke-linejoin="round"></path>
    </g>
    <defs>
      <clipPath id="clip0_313_334">
        <rect width="30" height="30" fill="white"></rect>
      </clipPath>
    </defs>
  </symbol>
  <symbol fill="none" xmlns="http://www.w3.org/2000/svg" viewBox="0 0 30 30" id="like-blue">
    <g clip-path="url(#clip0_313_338)">
      <path d="M23.8388 16.4277L16.7678 23.4988C15.7914 24.4751 14.2085 24.4751 13.2322 23.4988L6.16115 16.4277C3.72037 13.9869 3.72037 10.0297 6.16115 7.58888C8.60193 5.14811 12.5592 5.14811 15 7.58888C17.4408 5.14811 21.398 5.14811 23.8388 7.58888C26.2796 10.0297 26.2796 13.9869 23.8388 16.4277Z" stroke="#0077FF" stroke-width="2.5" stroke-linecap="round" stroke-linejoin="round"></path>
    </g>
    <defs>
      <clipPath id="clip0_313_338">
        <rect width="30" height="30" fill="white"></rect>
      </clipPath>
    </defs>
  </symbol>
  <symbol fill="none" xmlns="http://www.w3.org/2000/svg" viewBox="0 0 28 29" id="wa-1">
    <path d="M0.405933 14.5606C0.405074 16.9722 1.03598 19.3267 2.23561 21.4024L0.291016 28.4938L7.55685 26.591C9.55874 27.6805 11.8126 28.2557 14.1065 28.2565H14.1124C21.6664 28.2565 27.8149 22.117 27.8182 14.5714C27.8196 10.9146 26.3952 7.47662 23.8074 4.88962C21.2199 2.30298 17.7787 0.877693 14.1118 0.875977C6.55744 0.875977 0.408865 7.01465 0.405591 14.5607L0.405933 14.5606ZM14.1122 28.2564H14.1124H14.1122C14.1121 28.2564 14.1119 28.2564 14.1122 28.2564Z" fill="white"></path>
    <path fill-rule="evenodd" clip-rule="evenodd" d="M10.5659 8.62928C10.3001 8.0392 10.0205 8.02739 9.76768 8.01701C9.56079 8.00822 9.32418 8.0088 9.08784 8.0088C8.85121 8.0088 8.46688 8.09748 8.14189 8.45205C7.81662 8.80663 6.90015 9.66376 6.90015 11.407C6.90015 13.1504 8.17152 14.8349 8.34865 15.0715C8.52608 15.3077 10.8029 18.9995 14.4084 20.4196C17.4052 21.5999 18.015 21.3652 18.6654 21.306C19.3159 21.247 20.7644 20.4492 21.0599 19.6218C21.3556 18.7945 21.3556 18.0854 21.2669 17.9373C21.1783 17.7896 20.9416 17.7009 20.5869 17.5239C20.232 17.3466 18.488 16.4894 18.1629 16.3711C17.8376 16.253 17.6011 16.1941 17.3645 16.5488C17.128 16.9031 16.4486 17.7009 16.2415 17.9373C16.0346 18.1741 15.8276 18.2036 15.4729 18.0264C15.118 17.8486 13.9754 17.4748 12.62 16.2679C11.5654 15.3287 10.8535 14.1689 10.6464 13.8142C10.4395 13.4599 10.6243 13.268 10.8022 13.0913C10.9616 12.9325 11.1571 12.6776 11.3345 12.4708C11.5115 12.2639 11.5706 12.1162 11.6888 11.8799C11.8072 11.6434 11.748 11.4365 11.6594 11.2592C11.5706 11.082 10.8812 9.32982 10.5657 8.62918" fill="#1BC100"></path>
  </symbol>
  <symbol fill="none" xmlns="http://www.w3.org/2000/svg" viewBox="0 0 30 30" id="tg-1">
    <path d="M14.8182 29.1819C22.751 29.1819 29.1819 22.751 29.1819 14.8182C29.1819 6.88541 22.751 0.45459 14.8182 0.45459C6.88541 0.45459 0.45459 6.88541 0.45459 14.8182C0.45459 22.751 6.88541 29.1819 14.8182 29.1819Z" fill="white"></path>
    <path fill-rule="evenodd" clip-rule="evenodd" d="M6.95638 14.6667C11.1437 12.8423 13.9359 11.6396 15.3329 11.0585C19.3219 9.39939 20.1507 9.11118 20.691 9.10166C20.8098 9.09957 21.0755 9.12902 21.2476 9.26866C21.3929 9.38657 21.4329 9.54585 21.452 9.65765C21.4711 9.76944 21.4949 10.0241 21.476 10.2231C21.2598 12.4943 20.3245 18.006 19.8487 20.5498C19.6473 21.6262 19.2509 21.9871 18.8671 22.0224C18.0329 22.0992 17.3995 21.4712 16.5916 20.9416C15.3275 20.1129 14.6133 19.597 13.3862 18.7884C11.968 17.8539 12.8873 17.3402 13.6955 16.5008C13.907 16.2811 17.5822 12.9383 17.6533 12.635C17.6622 12.5971 17.6705 12.4557 17.5865 12.3811C17.5025 12.3064 17.3786 12.332 17.2891 12.3523C17.1623 12.381 15.1428 13.7159 11.2305 16.3568C10.6572 16.7504 10.138 16.9422 9.67277 16.9322C9.15992 16.9211 8.17339 16.6422 7.44001 16.4038C6.54048 16.1114 5.82556 15.9568 5.88781 15.4602C5.92024 15.2016 6.27643 14.9371 6.95638 14.6667Z" fill="#49BEFF"></path>
  </symbol>
  <symbol fill="none" xmlns="http://www.w3.org/2000/svg" viewBox="0 0 31 31" id="vk-1">
    <path d="M0.969727 15.2243C0.969727 8.5046 0.969727 5.14479 3.05726 3.05726C5.14479 0.969727 8.5046 0.969727 15.2243 0.969727H16.4122C23.1319 0.969727 26.4916 0.969727 28.5792 3.05726C30.6667 5.14479 30.6667 8.5046 30.6667 15.2243V16.4122C30.6667 23.1319 30.6667 26.4916 28.5792 28.5792C26.4916 30.6667 23.1319 30.6667 16.4122 30.6667H15.2243C8.5046 30.6667 5.14479 30.6667 3.05726 28.5792C0.969727 26.4916 0.969727 23.1319 0.969727 16.4122V15.2243Z" fill="white"></path>
    <path d="M16.771 22.3638C10.0026 22.3638 6.14206 17.7237 5.9812 10.0024H9.37161C9.48297 15.6696 11.9824 18.0701 13.9622 18.5651V10.0024H17.1548V14.8901C19.1098 14.6797 21.1636 12.4524 21.8565 10.0024H25.049C24.517 13.0216 22.2897 15.2489 20.7058 16.1646C22.2897 16.907 24.8264 18.8497 25.7916 22.3638H22.2773C21.5225 20.0128 19.6419 18.1939 17.1548 17.9464V22.3638H16.771Z" fill="#0F83FF"></path>
  </symbol>
  <symbol fill="none" xmlns="http://www.w3.org/2000/svg" viewBox="0 0 24 24" id="location">
    <path fill-rule="evenodd" clip-rule="evenodd" d="M20.0349 10.0348C20.0349 11.9349 19.3753 13.681 18.2726 15.0565H18.2773C18.2773 15.0565 15.4848 18.7933 13.3216 21.4393C12.6314 22.2834 11.369 22.2831 10.6793 21.4386C8.52295 18.7985 5.73409 15.0646 5.73409 15.0646L5.72759 15.0565C4.62491 13.681 3.96533 11.9349 3.96533 10.0348C3.96533 5.5973 7.56263 2 12.0001 2C16.4376 2 20.0349 5.5973 20.0349 10.0348ZM15.0001 10C15.0001 11.6569 13.657 13 12.0001 13C10.3433 13 9.00012 11.6569 9.00012 10C9.00012 8.34315 10.3433 7 12.0001 7C13.657 7 15.0001 8.34315 15.0001 10Z" fill="#0077FF"></path>
  </symbol>
  <symbol fill="none" xmlns="http://www.w3.org/2000/svg" viewBox="0 0 64 64" id="doc">
    <g clip-path="url(#clip0_536_8556)">
      <path d="M18.6668 56C15.7213 56 13.3335 53.6122 13.3335 50.6667V8H37.3335L50.6668 21.3333V50.6667C50.6668 53.6122 48.279 56 45.3335 56H18.6668Z" stroke="white" stroke-width="3" stroke-linecap="round" stroke-linejoin="round"></path>
      <path d="M34.6665 8V24H50.6665" stroke="white" stroke-width="3" stroke-linejoin="round"></path>
      <path d="M24 34.6665H40" stroke="white" stroke-width="3" stroke-linecap="round" stroke-linejoin="round"></path>
      <path d="M24 45.3335H40" stroke="white" stroke-width="3" stroke-linecap="round" stroke-linejoin="round"></path>
    </g>
    <defs>
      <clipPath id="clip0_536_8556">
        <rect width="64" height="64" fill="white"></rect>
      </clipPath>
    </defs>
  </symbol>
  <symbol fill="none" xmlns="http://www.w3.org/2000/svg" viewBox="0 0 24 24" id="grid">
    <path d="M14 15C14 14.4477 14.4477 14 15 14H19C19.5523 14 20 14.4477 20 15V19C20 19.5523 19.5523 20 19 20H15C14.4477 20 14 19.5523 14 19V15Z" stroke="#ADB3BE" stroke-width="2" stroke-linecap="round" stroke-linejoin="round"></path>
    <path d="M4 15C4 14.4477 4.44772 14 5 14H9C9.55228 14 10 14.4477 10 15V19C10 19.5523 9.55228 20 9 20H5C4.44772 20 4 19.5523 4 19V15Z" stroke="#ADB3BE" stroke-width="2" stroke-linecap="round" stroke-linejoin="round"></path>
    <path d="M4 5C4 4.44772 4.44772 4 5 4H9C9.55228 4 10 4.44772 10 5V9C10 9.55228 9.55228 10 9 10H5C4.44772 10 4 9.55228 4 9V5Z" stroke="#ADB3BE" stroke-width="2" stroke-linecap="round" stroke-linejoin="round"></path>
    <path d="M14 5C14 4.44772 14.4477 4 15 4H19C19.5523 4 20 4.44772 20 5V9C20 9.55228 19.5523 10 19 10H15C14.4477 10 14 9.55228 14 9V5Z" stroke="#ADB3BE" stroke-width="2" stroke-linecap="round" stroke-linejoin="round"></path>
  </symbol>
  <symbol fill="none" xmlns="http://www.w3.org/2000/svg" viewBox="0 0 24 24" id="line">
    <path d="M4 15C4 14.4477 4.44772 14 5 14H19C19.5523 14 20 14.4477 20 15V19C20 19.5523 19.5523 20 19 20H5C4.44772 20 4 19.5523 4 19V15Z" stroke="#ADB3BE" stroke-width="2" stroke-linecap="round" stroke-linejoin="round"></path>
    <path d="M4 5C4 4.44772 4.44772 4 5 4H19C19.5523 4 20 4.44772 20 5V9C20 9.55228 19.5523 10 19 10H5C4.44772 10 4 9.55228 4 9V5Z" stroke="#ADB3BE" stroke-width="2" stroke-linecap="round" stroke-linejoin="round"></path>
  </symbol>
  <symbol fill="none" xmlns="http://www.w3.org/2000/svg" viewBox="0 0 24 24" id="line-active">
    <path d="M4 15C4 14.4477 4.44772 14 5 14H19C19.5523 14 20 14.4477 20 15V19C20 19.5523 19.5523 20 19 20H5C4.44772 20 4 19.5523 4 19V15Z" stroke="#0077FF" stroke-width="2" stroke-linecap="round" stroke-linejoin="round"></path>
    <path d="M4 5C4 4.44772 4.44772 4 5 4H19C19.5523 4 20 4.44772 20 5V9C20 9.55228 19.5523 10 19 10H5C4.44772 10 4 9.55228 4 9V5Z" stroke="#0077FF" stroke-width="2" stroke-linecap="round" stroke-linejoin="round"></path>
  </symbol>
  <symbol fill="none" xmlns="http://www.w3.org/2000/svg" viewBox="0 0 24 24" id="grid-active">
    <path d="M14 15C14 14.4477 14.4477 14 15 14H19C19.5523 14 20 14.4477 20 15V19C20 19.5523 19.5523 20 19 20H15C14.4477 20 14 19.5523 14 19V15Z" stroke="#0077FF" stroke-width="2" stroke-linecap="round" stroke-linejoin="round"></path>
    <path d="M4 15C4 14.4477 4.44772 14 5 14H9C9.55228 14 10 14.4477 10 15V19C10 19.5523 9.55228 20 9 20H5C4.44772 20 4 19.5523 4 19V15Z" stroke="#0077FF" stroke-width="2" stroke-linecap="round" stroke-linejoin="round"></path>
    <path d="M4 5C4 4.44772 4.44772 4 5 4H9C9.55228 4 10 4.44772 10 5V9C10 9.55228 9.55228 10 9 10H5C4.44772 10 4 9.55228 4 9V5Z" stroke="#0077FF" stroke-width="2" stroke-linecap="round" stroke-linejoin="round"></path>
    <path d="M14 5C14 4.44772 14.4477 4 15 4H19C19.5523 4 20 4.44772 20 5V9C20 9.55228 19.5523 10 19 10H15C14.4477 10 14 9.55228 14 9V5Z" stroke="#0077FF" stroke-width="2" stroke-linecap="round" stroke-linejoin="round"></path>
  </symbol>
  <symbol fill="none" xmlns="http://www.w3.org/2000/svg" viewBox="0 0 42 42" id="rouble">
    <g clip-path="url(#clip0_564_6167)">
      <circle cx="21" cy="21" r="15.75" stroke="#0077FF" stroke-width="3.5" stroke-linecap="round" stroke-linejoin="round"></circle>
      <path d="M16.815 29V13H21.9878C24.075 13 25.5951 13.4183 26.548 14.2549C27.516 15.0915 28 16.2418 28 17.7059C28 18.5724 27.8034 19.3866 27.4101 20.1485C27.0169 20.9104 26.3589 21.5229 25.4363 21.986C24.5288 22.4491 23.2885 22.6807 21.7155 22.6807H20.2408V29H16.815ZM15 26.6022V24.4286H23.7347V26.6022H15ZM15 22.6807V19.902H21.6475V22.6807H15ZM21.3752 19.902C22.0256 19.902 22.5852 19.8347 23.0541 19.7003C23.523 19.5509 23.886 19.3193 24.1431 19.0056C24.4002 18.6919 24.5288 18.296 24.5288 17.8179C24.5288 17.1307 24.3095 16.6228 23.8709 16.2941C23.4322 15.9505 22.744 15.7787 21.8063 15.7787H20.2408V19.902H21.3752Z" fill="#0077FF"></path>
    </g>
    <defs>
      <clipPath id="clip0_564_6167">
        <rect width="42" height="42" fill="white"></rect>
      </clipPath>
    </defs>
  </symbol>
  <symbol fill="none" xmlns="http://www.w3.org/2000/svg" viewBox="0 0 42 42" id="rouble-white">
    <g clip-path="url(#clip0_564_616711)">
      <circle cx="21" cy="21" r="15.75" stroke="white" stroke-width="3.5" stroke-linecap="round" stroke-linejoin="round"></circle>
      <path d="M16.815 29V13H21.9878C24.075 13 25.5951 13.4183 26.548 14.2549C27.516 15.0915 28 16.2418 28 17.7059C28 18.5724 27.8034 19.3866 27.4101 20.1485C27.0169 20.9104 26.3589 21.5229 25.4363 21.986C24.5288 22.4491 23.2885 22.6807 21.7155 22.6807H20.2408V29H16.815ZM15 26.6022V24.4286H23.7347V26.6022H15ZM15 22.6807V19.902H21.6475V22.6807H15ZM21.3752 19.902C22.0256 19.902 22.5852 19.8347 23.0541 19.7003C23.523 19.5509 23.886 19.3193 24.1431 19.0056C24.4002 18.6919 24.5288 18.296 24.5288 17.8179C24.5288 17.1307 24.3095 16.6228 23.8709 16.2941C23.4322 15.9505 22.744 15.7787 21.8063 15.7787H20.2408V19.902H21.3752Z" fill="white"></path>
    </g>
    <defs>
      <clipPath id="clip0_564_616711">
        <rect width="42" height="42" fill="white"></rect>
      </clipPath>
    </defs>
  </symbol>

  <symbol id="paysystems" width="128" height="24" viewBox="0 0 128 24" fill="none" xmlns="http://www.w3.org/2000/svg">
<path fill-rule="evenodd" clip-rule="evenodd" d="M18.2023 17.3808C16.9767 18.4091 15.3868 19.0298 13.6496 19.0298C9.77325 19.0298 6.63086 15.9393 6.63086 12.1269C6.63086 8.31445 9.77325 5.22388 13.6496 5.22388C15.3868 5.22388 16.9767 5.84463 18.2023 6.87292C19.4279 5.84463 21.0178 5.22388 22.755 5.22388C26.6314 5.22388 29.7738 8.31445 29.7738 12.1269C29.7738 15.9393 26.6314 19.0298 22.755 19.0298C21.0178 19.0298 19.4279 18.4091 18.2023 17.3808Z" fill="#ED0006"/>
<path fill-rule="evenodd" clip-rule="evenodd" d="M18.2021 17.3808C19.7112 16.1146 20.6681 14.2307 20.6681 12.1269C20.6681 10.0231 19.7112 8.13908 18.2021 6.87294C19.4278 5.84464 21.0176 5.22388 22.7549 5.22388C26.6312 5.22388 29.7736 8.31445 29.7736 12.1269C29.7736 15.9393 26.6312 19.0298 22.7549 19.0298C21.0176 19.0298 19.4278 18.4091 18.2021 17.3808Z" fill="#F9A000"/>
<path fill-rule="evenodd" clip-rule="evenodd" d="M18.2023 17.3809C19.7114 16.1148 20.6683 14.2308 20.6683 12.127C20.6683 10.0232 19.7114 8.13918 18.2023 6.87305C16.6932 8.13918 15.7363 10.0232 15.7363 12.127C15.7363 14.2308 16.6932 16.1148 18.2023 17.3809Z" fill="#FF5E00"/>
<path fill-rule="evenodd" clip-rule="evenodd" d="M57.0425 8.72168V8.72476C57.0393 8.72476 56.038 8.72168 55.771 9.64919C55.5263 10.4997 54.8366 12.8477 54.8175 12.9124H54.6268C54.6268 12.9124 53.9211 10.512 53.6732 9.6461C53.4062 8.7186 52.4018 8.72168 52.4018 8.72168H50.1133V15.7781H52.4018V11.5874H52.4972H52.5925L53.9275 15.7781H55.5168L56.8517 11.5905H57.0425V15.7781H59.331V8.72168H57.0425Z" fill="#4DB45E"/>
<path fill-rule="evenodd" clip-rule="evenodd" d="M65.4011 8.72168C65.4011 8.72168 64.7304 8.78023 64.4157 9.46122L62.7947 12.9124H62.604V8.72168H60.3154V15.7781H62.4768C62.4768 15.7781 63.1793 15.7165 63.494 15.0386L65.0832 11.5874H65.2739V15.7781H67.5625V8.72168H65.4011Z" fill="#4DB45E"/>
<path fill-rule="evenodd" clip-rule="evenodd" d="M68.5801 11.9265V15.7783H70.8686V13.5288H73.3479C74.4286 13.5288 75.344 12.8602 75.6841 11.9265H68.5801Z" fill="#4DB45E"/>
<path fill-rule="evenodd" clip-rule="evenodd" d="M73.3476 8.72168H68.2588C68.5131 10.0652 69.5524 11.1437 70.897 11.495C71.2021 11.5751 71.5231 11.6182 71.8537 11.6182H75.776C75.811 11.458 75.8268 11.2947 75.8268 11.1252C75.8268 9.79709 74.7175 8.72168 73.3476 8.72168Z" fill="url(#paint0_linear_671_9120)"/>
<path fill-rule="evenodd" clip-rule="evenodd" d="M102.929 16.2583H100.748L99.1129 10.1924C99.0352 9.91336 98.8704 9.66668 98.628 9.55042C98.0229 9.25824 97.3562 9.02572 96.6289 8.90845V8.67491H100.142C100.627 8.67491 100.991 9.02572 101.051 9.43314L101.9 13.8087L104.08 8.67491H106.2L102.929 16.2583ZM107.412 16.2582H105.352L107.048 8.67488H109.108L107.412 16.2582ZM111.773 10.7757C111.833 10.3673 112.197 10.1337 112.621 10.1337C113.288 10.0751 114.014 10.1924 114.62 10.4835L114.984 8.85081C114.378 8.61727 113.711 8.5 113.106 8.5C111.107 8.5 109.652 9.55041 109.652 11.0082C109.652 12.1173 110.683 12.6996 111.41 13.0504C112.197 13.4002 112.5 13.6338 112.439 13.9836C112.439 14.5082 111.833 14.7418 111.228 14.7418C110.501 14.7418 109.773 14.5669 109.108 14.2747L108.744 15.9085C109.471 16.1996 110.258 16.3169 110.986 16.3169C113.227 16.3745 114.62 15.3251 114.62 13.75C114.62 11.7665 111.773 11.6502 111.773 10.7757ZM121.828 16.2582L120.192 8.67488H118.436C118.072 8.67488 117.708 8.90842 117.587 9.25821L114.559 16.2582H116.679L117.102 15.1502H119.707L119.95 16.2582H121.828ZM118.741 10.717L119.346 13.5751H117.65L118.741 10.717Z" fill="#172B85"/>
<defs>
<linearGradient id="paint0_linear_671_9120" x1="68.2594" y1="10.1699" x2="75.8268" y2="10.1699" gradientUnits="userSpaceOnUse">
<stop offset="0.3" stop-color="#00B4E6"/>
<stop offset="1" stop-color="#088CCB"/>
</linearGradient>
</defs>
</symbol>
<symbol width="76" height="76" viewBox="0 0 76 76" fill="none" id="success" xmlns="http://www.w3.org/2000/svg">
<rect width="76" height="76" rx="38" fill="#0077FF"/>
<path d="M52 29.25L34.5 46.75L25.75 38" stroke="white" stroke-width="3.5" stroke-linecap="round" stroke-linejoin="round"/>
</symbol>
<symbol fill="none" xmlns="http://www.w3.org/2000/svg" viewBox="0 0 24 24" id="vk-2">
    <path d="M1.63672 11.4549C1.63672 6.82655 1.63672 4.5124 3.07456 3.07456C4.5124 1.63672 6.82655 1.63672 11.4549 1.63672H12.2731C16.9014 1.63672 19.2156 1.63672 20.6534 3.07456C22.0913 4.5124 22.0913 6.82655 22.0913 11.4549V12.2731C22.0913 16.9014 22.0913 19.2156 20.6534 20.6534C19.2156 22.0913 16.9014 22.0913 12.2731 22.0913H11.4549C6.82655 22.0913 4.5124 22.0913 3.07456 20.6534C1.63672 19.2156 1.63672 16.9014 1.63672 12.2731V11.4549Z" fill="#0077FF"></path>
    <path d="M12.5206 16.3736C7.85871 16.3736 5.19966 13.1776 5.08887 7.85938H7.42409C7.5008 11.7628 9.22235 13.4162 10.586 13.7571V7.85938H12.7849V11.2259C14.1315 11.081 15.5461 9.54688 16.0234 7.85938H18.2223C17.8558 9.93892 16.3217 11.473 15.2308 12.1037C16.3217 12.6151 18.069 13.9531 18.7338 16.3736H16.3132C15.7933 14.7543 14.498 13.5014 12.7849 13.331V16.3736H12.5206Z" fill="white"></path>
  </symbol>
  <symbol fill="none" xmlns="http://www.w3.org/2000/svg" viewBox="0 0 24 24" id="tg-2">
    <path fill-rule="evenodd" clip-rule="evenodd" d="M22.737 12.158C22.737 18.0006 18.0006 22.737 12.158 22.737C6.31546 22.737 1.5791 18.0006 1.5791 12.158C1.5791 6.31546 6.31546 1.5791 12.158 1.5791C18.0006 1.5791 22.737 6.31546 22.737 12.158ZM12.5372 9.38896C11.5082 9.81694 9.45174 10.7028 6.36776 12.0464C5.86697 12.2455 5.60464 12.4404 5.58075 12.6309C5.54039 12.9528 5.94356 13.0796 6.49258 13.2522C6.56725 13.2757 6.64463 13.3 6.72396 13.3258C7.2641 13.5014 7.99069 13.7068 8.36841 13.715C8.71104 13.7224 9.09346 13.5811 9.51566 13.2912C12.3971 11.3461 13.8845 10.363 13.9779 10.3418C14.0438 10.3269 14.1351 10.3081 14.197 10.363C14.2588 10.418 14.2527 10.5221 14.2462 10.5501C14.2062 10.7203 12.6237 12.1916 11.8047 12.953C11.5493 13.1904 11.3682 13.3588 11.3312 13.3972C11.2483 13.4834 11.1638 13.5649 11.0825 13.6432C10.5807 14.1269 10.2044 14.4897 11.1034 15.0821C11.5354 15.3668 11.881 15.6022 12.2259 15.837C12.6025 16.0935 12.9782 16.3493 13.4642 16.6679C13.5881 16.7491 13.7063 16.8334 13.8215 16.9155C14.2598 17.228 14.6536 17.5087 15.1401 17.464C15.4228 17.438 15.7148 17.1721 15.8631 16.3794C16.2135 14.5058 16.9024 10.4464 17.0616 8.77366C17.0755 8.62711 17.058 8.43954 17.0439 8.3572C17.0298 8.27487 17.0004 8.15756 16.8934 8.07071C16.7666 7.96787 16.5709 7.94618 16.4834 7.94772C16.0855 7.95473 15.4751 8.167 12.5372 9.38896Z" fill="#1FBBDD"></path>
  </symbol>
  <symbol fill="none" xmlns="http://www.w3.org/2000/svg" viewBox="0 0 24 24" id="wa-2">
    <path fill-rule="evenodd" clip-rule="evenodd" d="M3.14279 16.7868C2.23899 15.223 1.76367 13.4492 1.76431 11.6323L1.76406 11.6323C1.76652 5.94714 6.39886 1.32227 12.0903 1.32227C14.8529 1.32356 17.4455 2.39737 19.3949 4.34614C21.3446 6.29519 22.4178 8.88537 22.4167 11.6404C22.4142 17.3252 17.7819 21.9507 12.0908 21.9507H12.0863C10.3581 21.9502 8.66003 21.5168 7.15181 20.6959L1.67773 22.1295L3.14279 16.7868ZM8.81752 6.70245C9.00798 6.71027 9.21867 6.71917 9.41892 7.16374L9.41876 7.16366C9.55543 7.46721 9.78526 8.03274 9.96863 8.48395C10.1041 8.81739 10.2143 9.08839 10.2427 9.14513C10.3095 9.27866 10.3541 9.43456 10.2649 9.61273C10.2515 9.63947 10.2391 9.6647 10.2273 9.68881C10.1604 9.82522 10.1113 9.92546 9.99797 10.0579C9.95334 10.11 9.90718 10.166 9.86104 10.2221C9.76897 10.3339 9.67692 10.4457 9.59693 10.5254C9.46292 10.6585 9.32369 10.8031 9.47956 11.07C9.63554 11.3373 10.1719 12.2111 10.9665 12.9187C11.8199 13.6786 12.5614 14.0001 12.938 14.1634C13.012 14.1955 13.0719 14.2215 13.1158 14.2435C13.3831 14.377 13.539 14.3548 13.6949 14.1764C13.8509 13.9983 14.3628 13.3972 14.5409 13.1303C14.7192 12.863 14.8974 12.9075 15.1425 12.9964C15.3874 13.0855 16.7014 13.7314 16.9687 13.8649C17.0207 13.8909 17.0693 13.9143 17.1144 13.936C17.3011 14.026 17.4272 14.0868 17.481 14.1764C17.5478 14.2879 17.5478 14.8222 17.3251 15.4455C17.1024 16.0688 16.0111 16.67 15.5211 16.7144C15.474 16.7187 15.4271 16.7242 15.379 16.7298C14.9261 16.7831 14.3546 16.8503 12.3139 16.0466C9.80366 15.0579 8.14832 12.6077 7.80596 12.101C7.77784 12.0593 7.75857 12.0308 7.74842 12.0173L7.74526 12.0131C7.60057 11.8199 6.65712 10.56 6.65712 9.25645C6.65712 8.02706 7.26215 7.38263 7.5405 7.08615C7.55951 7.06591 7.57699 7.04728 7.59266 7.03021C7.8375 6.76308 8.12705 6.69626 8.30533 6.69626C8.31562 6.69626 8.32591 6.69626 8.3362 6.69626C8.50392 6.69624 8.67066 6.69621 8.81752 6.70245Z" fill="#19BF3E"></path>
  </symbol>
  <symbol fill="none" xmlns="http://www.w3.org/2000/svg" viewBox="0 0 32 32" id="share-ok">
    <path d="M15.6377 1.81836C11.5276 1.81836 8.18414 5.01785 8.18414 8.95114C8.18414 12.8841 11.5276 16.0822 15.6377 16.0822C19.7476 16.0822 23.0895 12.8841 23.0895 8.95114C23.0895 5.01785 19.7476 1.81836 15.6377 1.81836ZM15.6377 5.9975C17.3387 5.9975 18.722 7.32314 18.722 8.95114C18.722 10.5785 17.3388 11.9031 15.6377 11.9031C13.9363 11.9031 12.5516 10.5785 12.5516 8.95114C12.5516 7.32314 13.9363 5.9975 15.6377 5.9975ZM9.49259 16.3249C8.75516 16.3139 8.03 16.6618 7.60934 17.3033C6.96648 18.2808 7.27444 19.5705 8.29335 20.1853C9.64109 20.9945 11.1036 21.5687 12.6202 21.8996L8.45488 25.8879C7.60218 26.7044 7.6029 28.0268 8.45577 28.8433C8.88325 29.2508 9.44078 29.4547 9.99973 29.4547C10.5581 29.4547 11.1175 29.2505 11.5437 28.8424L15.6359 24.9241L19.7318 28.8424C20.5838 29.6587 21.9653 29.6587 22.8188 28.8424C23.6718 28.0264 23.6718 26.7027 22.8188 25.8879L18.6516 21.9005C20.1687 21.5696 21.6317 20.9951 22.9785 20.1853C23.9994 19.5706 24.3078 18.2794 23.6652 17.3034C23.0218 16.3257 21.6747 16.0312 20.6531 16.647C17.6017 18.484 13.67 18.4828 10.6196 16.647C10.2685 16.4353 9.87886 16.3306 9.49259 16.3249V16.3249Z" fill="#EE8208"></path>
  </symbol>
  <symbol fill="none" xmlns="http://www.w3.org/2000/svg" viewBox="0 0 32 32" id="share-tg">
    <path d="M16.1816 30.1816C23.9136 30.1816 30.1816 23.9136 30.1816 16.1816C30.1816 8.44965 23.9136 2.18164 16.1816 2.18164C8.44965 2.18164 2.18164 8.44965 2.18164 16.1816C2.18164 23.9136 8.44965 30.1816 16.1816 30.1816Z" fill="url(#paint0_linear_851_18402)"></path>
    <path fill-rule="evenodd" clip-rule="evenodd" d="M8.51785 16.0336C12.5991 14.2554 15.3206 13.0832 16.6823 12.5168C20.5703 10.8997 21.3782 10.6187 21.9047 10.6095C22.0205 10.6074 22.2795 10.6361 22.4472 10.7722C22.5889 10.8872 22.6278 11.0424 22.6465 11.1514C22.6651 11.2603 22.6884 11.5086 22.6699 11.7025C22.4592 13.9162 21.5476 19.2884 21.0838 21.7678C20.8875 22.8169 20.5011 23.1687 20.127 23.2031C19.314 23.2779 18.6966 22.6658 17.9092 22.1497C16.677 21.3419 15.9809 20.8391 14.7849 20.051C13.4026 19.1401 14.2987 18.6395 15.0864 17.8213C15.2926 17.6072 18.8747 14.349 18.944 14.0534C18.9527 14.0164 18.9607 13.8786 18.8789 13.8059C18.797 13.7331 18.6762 13.758 18.589 13.7778C18.4654 13.8058 16.497 15.1069 12.6837 17.6809C12.125 18.0646 11.6189 18.2515 11.1655 18.2417C10.6656 18.2309 9.70405 17.9591 8.98924 17.7268C8.11249 17.4418 7.41566 17.2911 7.47634 16.8071C7.50794 16.555 7.85512 16.2971 8.51785 16.0336Z" fill="white"></path>
    <defs>
      <linearGradient id="paint0_linear_851_18402" x1="16.1816" y1="2.18164" x2="16.1816" y2="29.974" gradientUnits="userSpaceOnUse">
        <stop stop-color="#2AABEE"></stop>
        <stop offset="1" stop-color="#229ED9"></stop>
      </linearGradient>
    </defs>
  </symbol>
  <symbol fill="none" xmlns="http://www.w3.org/2000/svg" viewBox="0 0 32 32" id="share-vb">
    <path d="M26.4583 4.47391C25.7627 3.8276 22.9517 1.77276 16.6905 1.74484C16.6905 1.74484 9.30685 1.29648 5.70745 4.62111C3.70383 6.63915 2.99898 9.59197 2.92464 13.2529C2.85029 16.9138 2.7541 23.7745 9.32155 25.6348H9.32785L9.32365 28.4734C9.32365 28.4734 9.28164 29.6226 10.0331 29.857C10.9421 30.1412 11.4756 29.2677 12.3434 28.3262C12.8197 27.8093 13.4775 27.0501 13.9732 26.4697C18.4647 26.8504 21.9192 25.9803 22.3115 25.8518C23.2184 25.5557 28.3501 24.8933 29.1848 18.0334C30.0463 10.9624 28.7681 6.48983 26.4583 4.47391ZM27.2194 17.5262C26.515 23.2542 22.3527 23.6142 21.5853 23.8621C21.2589 23.9678 18.2249 24.7279 14.4096 24.4771C14.4096 24.4771 11.5667 27.9307 10.6787 28.8287C10.5401 28.9691 10.3771 29.0258 10.2683 28.9979C10.1154 28.9602 10.0734 28.7779 10.0751 28.5115C10.0776 28.1308 10.0995 23.7944 10.0995 23.7944C10.0995 23.7944 10.0961 23.7944 10.0995 23.7944C4.54392 22.2412 4.86778 16.402 4.93079 13.3442C4.99379 10.2865 5.56422 7.78162 7.25869 6.09689C10.3032 3.32002 16.5749 3.73496 16.5749 3.73496C21.8713 3.75823 24.4093 5.36428 24.9977 5.90231C26.9518 7.58705 27.9473 11.6185 27.2194 17.5245V17.5262Z" fill="#7360F2"></path>
    <path fill-rule="evenodd" clip-rule="evenodd" d="M16.7974 10.8712C16.8076 10.6745 16.9741 10.5234 17.1694 10.5337C17.9001 10.5721 18.508 10.7948 18.941 11.2456C19.3723 11.6947 19.5837 12.322 19.6209 13.0754C19.6305 13.2721 19.4801 13.4395 19.2847 13.4492C19.0894 13.459 18.9232 13.3074 18.9135 13.1108C18.8818 12.4658 18.706 12.0267 18.4319 11.7414C18.1595 11.4577 17.7438 11.278 17.1325 11.2459C16.9372 11.2356 16.7872 11.0679 16.7974 10.8712Z" fill="#7360F2"></path>
    <path fill-rule="evenodd" clip-rule="evenodd" d="M16.2627 8.9497C16.277 8.7533 16.4466 8.60573 16.6417 8.62011C18.1287 8.72969 19.3256 9.24133 20.1974 10.1996L20.1975 10.1998C21.0599 11.1487 21.4698 12.3291 21.44 13.7136C21.4358 13.9105 21.2738 14.0667 21.0783 14.0624C20.8828 14.0581 20.7277 13.8951 20.732 13.6982C20.7582 12.4772 20.4016 11.4807 19.6751 10.6812C18.9508 9.88512 17.9382 9.43071 16.59 9.33135C16.3949 9.31698 16.2484 9.14611 16.2627 8.9497Z" fill="#7360F2"></path>
    <path fill-rule="evenodd" clip-rule="evenodd" d="M15.6367 7.12362C15.6381 6.9267 15.7977 6.76817 15.9933 6.76954C18.0483 6.78395 19.7852 7.47284 21.1799 8.84187C22.5861 10.2223 23.2816 12.1017 23.2992 14.4359C23.3007 14.6328 23.1434 14.7937 22.9478 14.7952C22.7523 14.7966 22.5925 14.6382 22.591 14.4413C22.5745 12.2541 21.9283 10.5725 20.6855 9.35252C19.431 8.12106 17.8734 7.49589 15.9884 7.48267C15.7928 7.4813 15.6354 7.32055 15.6367 7.12362Z" fill="#7360F2"></path>
    <path d="M17.2231 17.8686C17.2231 17.8686 17.7209 17.9109 17.9889 17.5785L18.5114 16.9165C18.7634 16.5883 19.3717 16.3789 19.9673 16.7131C20.4136 16.9694 20.847 17.2481 21.2657 17.548C21.6609 17.8407 22.4704 18.5209 22.4729 18.5209C22.8585 18.8487 22.9475 19.33 22.685 19.8376C22.685 19.8406 22.6829 19.8457 22.6829 19.8482C22.3938 20.3529 22.0267 20.8081 21.5954 21.1966C21.5904 21.1992 21.5904 21.2017 21.5857 21.2043C21.2111 21.5195 20.843 21.6987 20.4814 21.7419C20.4282 21.7513 20.3741 21.7547 20.3201 21.752C20.1607 21.7536 20.0021 21.729 19.8505 21.6793L19.8388 21.6619C19.2818 21.5037 18.3518 21.1078 16.8031 20.2475C15.9069 19.7555 15.0536 19.1879 14.2525 18.5509C13.851 18.2318 13.468 17.8898 13.1054 17.5264L13.0667 17.4875L13.0281 17.4486L12.9895 17.4097C12.9764 17.397 12.9638 17.3839 12.9508 17.3708C12.59 17.0057 12.2504 16.62 11.9335 16.2156C11.301 15.409 10.7373 14.55 10.2486 13.6477C9.39427 12.0878 9.0011 11.1521 8.84401 10.5904L8.82678 10.5786C8.77754 10.4259 8.75328 10.2662 8.75496 10.1057C8.75202 10.0513 8.75526 9.99685 8.76462 9.94326C8.8097 9.57978 8.98794 9.20882 9.29934 8.8304C9.30186 8.82574 9.30438 8.82574 9.3069 8.82067C9.69263 8.3864 10.1447 8.01687 10.646 7.72599C10.6485 7.72599 10.6536 7.72346 10.6565 7.72346C11.1606 7.45909 11.6386 7.54877 11.9637 7.93495C11.9662 7.93749 12.6404 8.75257 12.9298 9.15059C13.2277 9.57262 13.5045 10.0094 13.759 10.4593C14.0908 11.0587 13.8829 11.6724 13.5569 11.9253L12.8996 12.4515C12.5677 12.7214 12.6114 13.2226 12.6114 13.2226C12.6114 13.2226 13.5851 16.9334 17.2231 17.8686Z" fill="#7360F2"></path>
  </symbol>
  <symbol fill="none" xmlns="http://www.w3.org/2000/svg" viewBox="0 0 32 32" id="share-vk">
    <path d="M2.9082 15.3009C2.9082 9.45892 2.9082 6.53795 4.72308 4.72308C6.53795 2.9082 9.45892 2.9082 15.3009 2.9082H16.3337C22.1757 2.9082 25.0966 2.9082 26.9115 4.72308C28.7264 6.53795 28.7264 9.45892 28.7264 15.3009V16.3337C28.7264 22.1757 28.7264 25.0966 26.9115 26.9115C25.0966 28.7264 22.1757 28.7264 16.3337 28.7264H15.3009C9.45892 28.7264 6.53795 28.7264 4.72308 26.9115C2.9082 25.0966 2.9082 22.1757 2.9082 16.3337V15.3009Z" fill="#0077FF"></path>
    <path d="M16.6462 21.5085C10.7618 21.5085 7.40547 17.4744 7.26562 10.7617H10.2132C10.31 15.6887 12.483 17.7757 14.2042 18.206V10.7617H16.9798V15.011C18.6795 14.8281 20.465 12.8917 21.0674 10.7617H23.8429C23.3804 13.3866 21.444 15.3229 20.067 16.119C21.444 16.7644 23.6494 18.4534 24.4885 21.5085H21.4332C20.777 19.4646 19.142 17.8832 16.9798 17.6681V21.5085H16.6462Z" fill="white"></path>
  </symbol>

  <symbol viewBox="0 0 32 32" fill="none" xmlns="http://www.w3.org/2000/svg" id="share-wa">
    <path d="M2.76618 15.563C2.76534 17.9109 3.37956 20.2031 4.54747 22.2238L2.6543 29.1278L9.728 27.2752C11.677 28.336 13.8713 28.896 16.1045 28.8967H16.1102C23.4644 28.8967 29.4504 22.9196 29.4536 15.5735C29.455 12.0134 28.0683 8.66634 25.5488 6.14774C23.0297 3.6295 19.6795 2.24191 16.1096 2.24023C8.75502 2.24023 2.76903 8.21658 2.76584 15.5631L2.76618 15.563ZM16.11 28.8966H16.1102H16.11C16.1097 28.8966 16.1099 28.8966 16.11 28.8966Z" fill="url(#paint0_linear_851_18389)"/>
    <path fill-rule="evenodd" clip-rule="evenodd" d="M12.6567 9.78963C12.398 9.21516 12.1257 9.20366 11.8796 9.19355C11.6782 9.185 11.4478 9.18555 11.2177 9.18555C10.9874 9.18555 10.6132 9.27189 10.2968 9.61709C9.98013 9.9623 9.08789 10.7968 9.08789 12.4939C9.08789 14.1912 10.3256 15.8311 10.4981 16.0615C10.6708 16.2915 12.8874 19.8856 16.3976 21.2682C19.3152 22.4173 19.9089 22.1887 20.5421 22.1312C21.1753 22.0737 22.5855 21.297 22.8732 20.4915C23.1611 19.6861 23.1611 18.9957 23.0748 18.8515C22.9885 18.7077 22.7581 18.6214 22.4127 18.449C22.0672 18.2765 20.3693 17.4419 20.0528 17.3268C19.7361 17.2118 19.5059 17.1544 19.2755 17.4997C19.0453 17.8446 18.3838 18.6214 18.1823 18.8515C17.9808 19.082 17.7793 19.1108 17.4339 18.9383C17.0884 18.7652 15.9761 18.4013 14.6565 17.2263C13.6298 16.3119 12.9367 15.1828 12.7351 14.8374C12.5337 14.4925 12.7136 14.3057 12.8868 14.1337C13.0419 13.9791 13.2323 13.7309 13.405 13.5296C13.5773 13.3281 13.6348 13.1844 13.7499 12.9543C13.8652 12.724 13.8076 12.5226 13.7212 12.35C13.6348 12.1775 12.9636 10.4716 12.6565 9.78953" fill="white"/>
    <defs>
    <linearGradient id="paint0_linear_851_18389" x1="16.0541" y1="29.125" x2="16.0541" y2="2.23741" gradientUnits="userSpaceOnUse">
    <stop stop-color="#20B038"/>
    <stop offset="1" stop-color="#60D66A"/>
    </linearGradient>
    </defs>
    </symbol>

  <symbol id="warranty" viewBox="0 0 42 43" fill="none" xmlns="http://www.w3.org/2000/svg">
<g clip-path="url(#clip0_852_15961)">
<path d="M15.75 26.75V39L21 35.5L26.25 39V26.75" stroke="#0077FF" stroke-width="3.5" stroke-linecap="round" stroke-linejoin="round"/>
<path d="M18.3923 5.16291C19.7835 3.6089 22.2165 3.6089 23.6077 5.16291L23.8429 5.4256C24.5519 6.2176 25.5824 6.64445 26.6438 6.58578L26.9958 6.56631C29.0784 6.45118 30.7988 8.1716 30.6837 10.2542L30.6642 10.6062C30.6055 11.6676 31.0324 12.6981 31.8244 13.4071L32.0871 13.6423C33.6411 15.0335 33.6411 17.4665 32.0871 18.8577L31.8244 19.0929C31.0324 19.8019 30.6055 20.8324 30.6642 21.8938L30.6837 22.2458C30.7988 24.3284 29.0784 26.0488 26.9958 25.9337L26.6438 25.9142C25.5824 25.8555 24.5519 26.2824 23.8429 27.0744L23.6077 27.3371C22.2165 28.8911 19.7835 28.8911 18.3923 27.3371L18.1571 27.0744C17.4481 26.2824 16.4176 25.8555 15.3562 25.9142L15.0042 25.9337C12.9216 26.0488 11.2012 24.3284 11.3163 22.2458L11.3358 21.8938C11.3945 20.8324 10.9676 19.8019 10.1756 19.0929L9.91291 18.8577C8.3589 17.4665 8.3589 15.0335 9.91291 13.6423L10.1756 13.4071C10.9676 12.6981 11.3945 11.6676 11.3358 10.6062L11.3163 10.2542C11.2012 8.1716 12.9216 6.45118 15.0042 6.56631L15.3562 6.58578C16.4176 6.64445 17.4481 6.2176 18.1571 5.4256L18.3923 5.16291Z" stroke="#0077FF" stroke-width="3.5"/>
<path d="M24.5 14.5L19.25 19.75L17.5 18" stroke="#0077FF" stroke-width="3.5" stroke-linecap="round" stroke-linejoin="round"/>
</g>
<defs>
<clipPath id="clip0_852_15961">
<rect width="42" height="42" fill="white" transform="translate(0 0.5)"/>
</clipPath>
</defs>
</symbol>

 <symbol id="warranty-white" viewBox="0 0 42 43" fill="none" xmlns="http://www.w3.org/2000/svg">
<g clip-path="url(#clip0_852_15961)">
<path d="M15.75 26.75V39L21 35.5L26.25 39V26.75" stroke="#FFFFFF" stroke-width="3.5" stroke-linecap="round" stroke-linejoin="round"/>
<path d="M18.3923 5.16291C19.7835 3.6089 22.2165 3.6089 23.6077 5.16291L23.8429 5.4256C24.5519 6.2176 25.5824 6.64445 26.6438 6.58578L26.9958 6.56631C29.0784 6.45118 30.7988 8.1716 30.6837 10.2542L30.6642 10.6062C30.6055 11.6676 31.0324 12.6981 31.8244 13.4071L32.0871 13.6423C33.6411 15.0335 33.6411 17.4665 32.0871 18.8577L31.8244 19.0929C31.0324 19.8019 30.6055 20.8324 30.6642 21.8938L30.6837 22.2458C30.7988 24.3284 29.0784 26.0488 26.9958 25.9337L26.6438 25.9142C25.5824 25.8555 24.5519 26.2824 23.8429 27.0744L23.6077 27.3371C22.2165 28.8911 19.7835 28.8911 18.3923 27.3371L18.1571 27.0744C17.4481 26.2824 16.4176 25.8555 15.3562 25.9142L15.0042 25.9337C12.9216 26.0488 11.2012 24.3284 11.3163 22.2458L11.3358 21.8938C11.3945 20.8324 10.9676 19.8019 10.1756 19.0929L9.91291 18.8577C8.3589 17.4665 8.3589 15.0335 9.91291 13.6423L10.1756 13.4071C10.9676 12.6981 11.3945 11.6676 11.3358 10.6062L11.3163 10.2542C11.2012 8.1716 12.9216 6.45118 15.0042 6.56631L15.3562 6.58578C16.4176 6.64445 17.4481 6.2176 18.1571 5.4256L18.3923 5.16291Z" stroke="#FFFFFF" stroke-width="3.5"/>
<path d="M24.5 14.5L19.25 19.75L17.5 18" stroke="#FFFFFF" stroke-width="3.5" stroke-linecap="round" stroke-linejoin="round"/>
</g>
<defs>
<clipPath id="clip0_852_15961">
<rect width="42" height="42" fill="white" transform="translate(0 0.5)"/>
</clipPath>
</defs>
</symbol>
<symbol fill="none" xmlns="http://www.w3.org/2000/svg" viewBox="0 0 77 76" id="popup-1">
    <rect x="0.5" width="76" height="76" rx="38" fill="#E7F2FF"></rect>
    <path d="M42.1179 49.1441C42.1179 51.4183 40.2743 53.2619 38.0001 53.2619C35.7259 53.2619 33.8823 51.4183 33.8823 49.1441C33.8823 46.8699 35.7259 45.0264 38.0001 45.0264C40.2743 45.0264 42.1179 46.8699 42.1179 49.1441Z" fill="#0077FF"></path>
    <path d="M34.1177 26.0457C35.1873 24.9761 36.5884 24.4401 37.9903 24.4376C39.3986 24.4351 40.8077 24.9712 41.8823 26.0457C42.9543 27.1177 43.4904 28.5228 43.4904 29.9279C43.4904 31.333 42.9543 32.7381 41.8823 33.8102C40.8077 34.8847 39.3986 35.4208 37.9903 35.4183L38 38.1635" stroke="#0077FF" stroke-width="5.49035" stroke-linecap="round" stroke-linejoin="round"></path>
  </symbol>
  <symbol fill="none" xmlns="http://www.w3.org/2000/svg" viewBox="0 0 77 76" id="popup-2">
    <rect x="0.5" width="76" height="76" rx="38" fill="#E7F2FF"></rect>
    <g clip-path="url(#clip0_890_17013)">
      <path d="M51.136 30.9292C48.6166 40.8257 40.8257 48.6166 30.9292 51.136C27.1827 52.0898 24 48.866 24 45V43.25C24 42.2835 24.7854 41.5092 25.7472 41.4139C27.3722 41.2528 28.9318 40.8694 30.3952 40.2947L33.0539 42.9534C37.3782 40.884 40.884 37.3782 42.9534 33.0539L40.2947 30.3952C40.8694 28.9318 41.2528 27.3722 41.4139 25.7472C41.5092 24.7854 42.2835 24 43.25 24H45C48.866 24 52.0898 27.1827 51.136 30.9292Z" stroke="#0077FF" stroke-width="3.5" stroke-linecap="round" stroke-linejoin="round"></path>
    </g>
    <defs>
      <clipPath id="clip0_890_17013">
        <rect width="42" height="42" fill="white" transform="translate(17 17)"></rect>
      </clipPath>
    </defs>
  </symbol>
  <symbol fill="none" xmlns="http://www.w3.org/2000/svg" viewBox="0 0 77 76" id="popup-4">
    <rect x="0.5" width="76" height="76" rx="38" fill="#E7F2FF"></rect>
    <g clip-path="url(#clip0_890_29048)">
      <path d="M24 31H52V48.5C52 50.433 50.433 52 48.5 52H27.5C25.567 52 24 50.433 24 48.5V31Z" stroke="#0077FF" stroke-width="3.5" stroke-linecap="round" stroke-linejoin="round"></path>
      <path d="M31 24H45L52 31H24L31 24Z" stroke="#0077FF" stroke-width="3.5" stroke-linecap="round" stroke-linejoin="round"></path>
      <path d="M31 38H38" stroke="#0077FF" stroke-width="3.5" stroke-linecap="round" stroke-linejoin="round"></path>
    </g>
    <defs>
      <clipPath id="clip0_890_29048">
        <rect width="42" height="42" fill="white" transform="translate(17 17)"></rect>
      </clipPath>
    </defs>
  </symbol>
  <symbol fill="none" xmlns="http://www.w3.org/2000/svg" viewBox="0 0 77 76" id="popup-3">
    <rect x="0.5" width="76" height="76" rx="38" fill="#E7F2FF"></rect>
    <g clip-path="url(#clip0_890_33852)">
      <path d="M24 48.5C24 44.634 27.134 41.5 31 41.5H45C48.866 41.5 52 44.634 52 48.5V48.5C52 50.433 50.433 52 48.5 52H27.5C25.567 52 24 50.433 24 48.5V48.5Z" stroke="#0077FF" stroke-width="3.5" stroke-linejoin="round"></path>
      <circle cx="38" cy="29.25" r="5.25" stroke="#0077FF" stroke-width="3.5"></circle>
    </g>
    <defs>
      <clipPath id="clip0_890_33852">
        <rect width="42" height="42" fill="white" transform="translate(17 17)"></rect>
      </clipPath>
    </defs>
  </symbol>
  <symbol fill="none" xmlns="http://www.w3.org/2000/svg" viewBox="0 0 77 76" id="popup-5">
    <rect x="0.5" width="76" height="76" rx="38" fill="#E7F2FF"></rect>
    <g clip-path="url(#clip0_890_33862)">
      <path d="M25.75 22.25H50.25V50.25C50.25 52.183 48.683 53.75 46.75 53.75H29.25C27.317 53.75 25.75 52.183 25.75 50.25V22.25Z" stroke="#0077FF" stroke-width="3.5" stroke-linejoin="round"></path>
      <path d="M25.75 32.75H50.25" stroke="#0077FF" stroke-width="3.5" stroke-linecap="round"></path>
      <path d="M32.75 39.75H34.5" stroke="#0077FF" stroke-width="3.5" stroke-linecap="round"></path>
      <path d="M41.5 39.75H43.25" stroke="#0077FF" stroke-width="3.5" stroke-linecap="round"></path>
      <path d="M32.75 46.75H34.5" stroke="#0077FF" stroke-width="3.5" stroke-linecap="round"></path>
      <path d="M41.5 46.75H43.25" stroke="#0077FF" stroke-width="3.5" stroke-linecap="round"></path>
    </g>
    <defs>
      <clipPath id="clip0_890_33862">
        <rect width="42" height="42" fill="white" transform="translate(17 17)"></rect>
      </clipPath>
    </defs>
  </symbol>
  <symbol fill="none" xmlns="http://www.w3.org/2000/svg" viewBox="0 0 77 76" id="popup-success">
    <rect x="0.5" width="76" height="76" rx="38" fill="#0077FF"></rect>
    <path d="M52.5 29.25L35 46.75L26.25 38" stroke="white" stroke-width="3.5" stroke-linecap="round" stroke-linejoin="round"></path>
  </symbol>
</svg>