<svg width="77" height="76" fill="none" xmlns="http://www.w3.org/2000/svg"><rect x=".5" width="76" height="76" rx="38" fill="#E7F2FF"/><g clip-path="url(#a)"><path d="M51.136 30.93c-2.52 9.896-10.31 17.687-20.207 20.206C27.183 52.09 24 48.866 24 45v-1.75c0-.967.785-1.74 1.747-1.836a17.399 17.399 0 0 0 4.648-1.12l2.659 2.66a21.086 21.086 0 0 0 9.9-9.9l-2.66-2.659a17.399 17.399 0 0 0 1.12-4.648c.095-.962.87-1.747 1.836-1.747H45c3.866 0 7.09 3.183 6.136 6.93Z" stroke="#07F" stroke-width="3.5" stroke-linecap="round" stroke-linejoin="round"/></g><defs><clipPath id="a"><path fill="#fff" transform="translate(17 17)" d="M0 0h42v42H0z"/></clipPath></defs></svg>