<svg width="191" height="52" viewBox="0 0 191 52" fill="none" xmlns="http://www.w3.org/2000/svg">
<path d="M70.8112 39.0337H68.1164V44.2351H67.022V38.1159H70.8112V39.0337ZM77.0831 38.1159V44.2351H76.024V39.5751C75.7886 39.8732 75.5297 40.2223 75.2473 40.6224C74.9649 41.0225 74.6824 41.4383 74.4 41.8698C74.1176 42.2934 73.8469 42.7131 73.588 43.1289C73.3291 43.5447 73.1056 43.9134 72.9173 44.2351H71.9405V38.1159H72.9996V42.517C73.2036 42.1797 73.4351 41.8109 73.6939 41.4108C73.9528 41.0029 74.2196 40.6028 74.4942 40.2105C74.7766 39.8104 75.0551 39.4299 75.3297 39.069C75.6121 38.7003 75.8749 38.3826 76.1181 38.1159H77.0831ZM83.8811 44.2351H82.7867V39.0337H80.0565V44.2351H78.9621V38.1159H83.8811V44.2351ZM85.4241 41.1872C85.4241 40.6459 85.5026 40.1752 85.6595 39.7751C85.8164 39.3672 86.0243 39.0298 86.2832 38.7631C86.5421 38.4963 86.8402 38.2963 87.1775 38.1629C87.5149 38.0296 87.86 37.9629 88.2131 37.9629C89.0368 37.9629 89.6684 38.2218 90.1077 38.7396C90.547 39.2495 90.7667 40.0301 90.7667 41.0813C90.7667 41.1284 90.7667 41.1912 90.7667 41.2696C90.7667 41.3402 90.7628 41.4069 90.7549 41.4697H86.5656C86.6127 42.1051 86.797 42.5876 87.1187 42.9171C87.4403 43.2466 87.9424 43.4114 88.625 43.4114C89.0094 43.4114 89.331 43.38 89.5899 43.3172C89.8566 43.2466 90.0567 43.1799 90.1901 43.1172L90.343 44.035C90.2097 44.1057 89.9743 44.1802 89.637 44.2586C89.3075 44.3371 88.9309 44.3763 88.5073 44.3763C87.9738 44.3763 87.5109 44.2979 87.1187 44.141C86.7343 43.9762 86.4165 43.7526 86.1655 43.4702C85.9144 43.1878 85.7262 42.8543 85.6006 42.4699C85.483 42.0777 85.4241 41.6501 85.4241 41.1872ZM89.6252 40.5871C89.6331 40.0928 89.5075 39.6888 89.2486 39.375C88.9976 39.0534 88.6485 38.8925 88.2013 38.8925C87.9503 38.8925 87.7267 38.9435 87.5305 39.0455C87.3423 39.1397 87.1814 39.2652 87.0481 39.4221C86.9147 39.579 86.8088 39.7594 86.7303 39.9634C86.6597 40.1674 86.6127 40.3753 86.5891 40.5871H89.6252ZM96.587 41.1872C96.587 40.4733 96.4104 39.9242 96.0574 39.5398C95.7044 39.1553 95.2337 38.9631 94.6453 38.9631C94.3158 38.9631 94.0569 38.9749 93.8686 38.9984C93.6882 39.022 93.543 39.0494 93.4332 39.0808V42.9406C93.5666 43.0505 93.7588 43.1564 94.0098 43.2584C94.2609 43.3604 94.5354 43.4114 94.8336 43.4114C95.1474 43.4114 95.4141 43.3564 95.6338 43.2466C95.8613 43.1289 96.0456 42.972 96.1868 42.7759C96.3281 42.5719 96.43 42.3366 96.4928 42.0698C96.5556 41.7952 96.587 41.5011 96.587 41.1872ZM97.7284 41.1872C97.7284 41.6501 97.6657 42.0777 97.5401 42.4699C97.4225 42.8622 97.2459 43.1995 97.0106 43.482C96.7752 43.7644 96.485 43.9841 96.1398 44.141C95.8024 44.2979 95.4141 44.3763 94.9748 44.3763C94.6217 44.3763 94.3079 44.3292 94.0333 44.2351C93.7666 44.141 93.5666 44.0507 93.4332 43.9644V46.4121H92.3388V38.3041C92.5977 38.2414 92.9193 38.1747 93.3037 38.1041C93.696 38.0256 94.1471 37.9864 94.657 37.9864C95.1277 37.9864 95.5514 38.0609 95.928 38.21C96.3045 38.3591 96.6262 38.5709 96.8929 38.8455C97.1597 39.12 97.3636 39.4574 97.5048 39.8575C97.6539 40.2497 97.7284 40.693 97.7284 41.1872ZM100.433 39.728C100.355 40.5047 100.296 41.2814 100.257 42.0581C100.218 42.8269 100.186 43.5526 100.163 44.2351H99.1155C99.1311 43.7565 99.1547 43.2584 99.1861 42.7406C99.2174 42.215 99.2528 41.6893 99.292 41.1637C99.3312 40.6302 99.3744 40.1085 99.4214 39.5986C99.4685 39.0808 99.5195 38.5866 99.5744 38.1159H100.575C100.826 38.5238 101.12 39.0847 101.457 39.7986C101.795 40.5047 102.183 41.3206 102.622 42.2463C103.062 41.3206 103.45 40.5047 103.787 39.7986C104.125 39.0847 104.419 38.5238 104.67 38.1159H105.682C105.737 38.5866 105.788 39.0808 105.835 39.5986C105.882 40.1085 105.925 40.6302 105.964 41.1637C106.004 41.6893 106.039 42.215 106.07 42.7406C106.102 43.2584 106.125 43.7565 106.141 44.2351H105.058C105.035 43.5526 105.003 42.8269 104.964 42.0581C104.925 41.2814 104.866 40.5047 104.788 39.728C104.662 39.9712 104.517 40.2654 104.352 40.6106C104.187 40.948 104.023 41.2932 103.858 41.6462C103.701 41.9992 103.552 42.3366 103.411 42.6582C103.269 42.9799 103.16 43.2348 103.081 43.4231H102.163C102.077 43.227 101.959 42.9681 101.81 42.6465C101.669 42.3248 101.516 41.9875 101.351 41.6344C101.194 41.2735 101.034 40.9244 100.869 40.5871C100.704 40.2419 100.559 39.9556 100.433 39.728ZM109.947 43.4467C110.206 43.4467 110.433 43.4427 110.63 43.4349C110.834 43.4192 111.002 43.3957 111.136 43.3643V41.5403C111.057 41.5011 110.928 41.4697 110.747 41.4461C110.575 41.4148 110.363 41.3991 110.112 41.3991C109.947 41.3991 109.771 41.4108 109.582 41.4344C109.402 41.4579 109.233 41.5089 109.076 41.5874C108.927 41.658 108.802 41.7599 108.7 41.8933C108.598 42.0188 108.547 42.1875 108.547 42.3993C108.547 42.7916 108.672 43.0662 108.923 43.2231C109.174 43.3721 109.516 43.4467 109.947 43.4467ZM109.853 37.9629C110.292 37.9629 110.661 38.0217 110.959 38.1394C111.265 38.2492 111.508 38.4101 111.689 38.6219C111.877 38.8258 112.01 39.073 112.089 39.3632C112.167 39.6457 112.206 39.9595 112.206 40.3047V44.1292C112.112 44.1449 111.979 44.1684 111.806 44.1998C111.642 44.2233 111.453 44.2469 111.242 44.2704C111.03 44.2939 110.798 44.3136 110.547 44.3292C110.304 44.3528 110.061 44.3645 109.818 44.3645C109.472 44.3645 109.155 44.3292 108.864 44.2586C108.574 44.188 108.323 44.0782 108.111 43.9291C107.899 43.7722 107.735 43.5683 107.617 43.3172C107.499 43.0662 107.441 42.7641 107.441 42.4111C107.441 42.0738 107.507 41.7835 107.641 41.5403C107.782 41.2971 107.97 41.1009 108.205 40.9519C108.441 40.8028 108.715 40.693 109.029 40.6224C109.343 40.5518 109.672 40.5165 110.018 40.5165C110.127 40.5165 110.241 40.5243 110.359 40.54C110.477 40.5479 110.586 40.5636 110.688 40.5871C110.798 40.6028 110.892 40.6185 110.971 40.6342C111.049 40.6499 111.104 40.6616 111.136 40.6695V40.3635C111.136 40.1831 111.116 40.0065 111.077 39.834C111.038 39.6535 110.967 39.4966 110.865 39.3632C110.763 39.222 110.622 39.1122 110.441 39.0337C110.269 38.9474 110.041 38.9043 109.759 38.9043C109.398 38.9043 109.08 38.9318 108.806 38.9867C108.539 39.0337 108.339 39.0847 108.205 39.1397L108.076 38.2335C108.217 38.1708 108.453 38.1119 108.782 38.057C109.112 37.9943 109.468 37.9629 109.853 37.9629ZM118.272 41.1872C118.272 40.4733 118.096 39.9242 117.743 39.5398C117.39 39.1553 116.919 38.9631 116.331 38.9631C116.001 38.9631 115.742 38.9749 115.554 38.9984C115.373 39.022 115.228 39.0494 115.119 39.0808V42.9406C115.252 43.0505 115.444 43.1564 115.695 43.2584C115.946 43.3604 116.221 43.4114 116.519 43.4114C116.833 43.4114 117.099 43.3564 117.319 43.2466C117.547 43.1289 117.731 42.972 117.872 42.7759C118.013 42.5719 118.115 42.3366 118.178 42.0698C118.241 41.7952 118.272 41.5011 118.272 41.1872ZM119.414 41.1872C119.414 41.6501 119.351 42.0777 119.225 42.4699C119.108 42.8622 118.931 43.1995 118.696 43.482C118.461 43.7644 118.17 43.9841 117.825 44.141C117.488 44.2979 117.099 44.3763 116.66 44.3763C116.307 44.3763 115.993 44.3292 115.719 44.2351C115.452 44.141 115.252 44.0507 115.119 43.9644V46.4121H114.024V38.3041C114.283 38.2414 114.605 38.1747 114.989 38.1041C115.381 38.0256 115.832 37.9864 116.342 37.9864C116.813 37.9864 117.237 38.0609 117.613 38.21C117.99 38.3591 118.312 38.5709 118.578 38.8455C118.845 39.12 119.049 39.4574 119.19 39.8575C119.339 40.2497 119.414 40.693 119.414 41.1872ZM123.19 40.9048C123.433 41.0774 123.696 41.2971 123.978 41.5638C124.261 41.8227 124.535 42.1051 124.802 42.4111C125.076 42.7171 125.331 43.0309 125.567 43.3525C125.802 43.6663 126.002 43.9605 126.167 44.2351H124.872C124.7 43.9684 124.496 43.6977 124.261 43.4231C124.033 43.1407 123.794 42.87 123.543 42.6111C123.292 42.3523 123.037 42.113 122.778 41.8933C122.519 41.6736 122.276 41.4893 122.048 41.3402V44.2351H120.954V38.1159H122.048V40.7401C122.236 40.5596 122.452 40.3517 122.695 40.1164C122.939 39.8732 123.182 39.63 123.425 39.3868C123.676 39.1357 123.907 38.9004 124.119 38.6807C124.331 38.4532 124.504 38.2649 124.637 38.1159H125.908C125.735 38.3041 125.531 38.5199 125.296 38.7631C125.069 38.9984 124.829 39.2416 124.578 39.4927C124.335 39.7437 124.092 39.9948 123.849 40.2458C123.605 40.489 123.386 40.7087 123.19 40.9048ZM126.623 41.1872C126.623 40.6459 126.701 40.1752 126.858 39.7751C127.015 39.3672 127.223 39.0298 127.482 38.7631C127.741 38.4963 128.039 38.2963 128.376 38.1629C128.714 38.0296 129.059 37.9629 129.412 37.9629C130.236 37.9629 130.867 38.2218 131.306 38.7396C131.746 39.2495 131.965 40.0301 131.965 41.0813C131.965 41.1284 131.965 41.1912 131.965 41.2696C131.965 41.3402 131.961 41.4069 131.954 41.4697H127.764C127.811 42.1051 127.996 42.5876 128.317 42.9171C128.639 43.2466 129.141 43.4114 129.824 43.4114C130.208 43.4114 130.53 43.38 130.789 43.3172C131.055 43.2466 131.255 43.1799 131.389 43.1172L131.542 44.035C131.408 44.1057 131.173 44.1802 130.836 44.2586C130.506 44.3371 130.13 44.3763 129.706 44.3763C129.172 44.3763 128.71 44.2979 128.317 44.141C127.933 43.9762 127.615 43.7526 127.364 43.4702C127.113 43.1878 126.925 42.8543 126.799 42.4699C126.682 42.0777 126.623 41.6501 126.623 41.1872ZM130.824 40.5871C130.832 40.0928 130.706 39.6888 130.447 39.375C130.196 39.0534 129.847 38.8925 129.4 38.8925C129.149 38.8925 128.925 38.9435 128.729 39.0455C128.541 39.1397 128.38 39.2652 128.247 39.4221C128.113 39.579 128.007 39.7594 127.929 39.9634C127.858 40.1674 127.811 40.3753 127.788 40.5871H130.824ZM137.856 38.1159V39.0337H135.867V44.2351H134.773V39.0337H132.784V38.1159H137.856ZM142.873 39.728C142.795 40.5047 142.736 41.2814 142.697 42.0581C142.658 42.8269 142.626 43.5526 142.603 44.2351H141.555C141.571 43.7565 141.595 43.2584 141.626 42.7406C141.657 42.215 141.693 41.6893 141.732 41.1637C141.771 40.6302 141.814 40.1085 141.861 39.5986C141.908 39.0808 141.959 38.5866 142.014 38.1159H143.014C143.266 38.5238 143.56 39.0847 143.897 39.7986C144.234 40.5047 144.623 41.3206 145.062 42.2463C145.501 41.3206 145.89 40.5047 146.227 39.7986C146.564 39.0847 146.859 38.5238 147.11 38.1159H148.122C148.177 38.5866 148.228 39.0808 148.275 39.5986C148.322 40.1085 148.365 40.6302 148.404 41.1637C148.443 41.6893 148.479 42.215 148.51 42.7406C148.541 43.2584 148.565 43.7565 148.581 44.2351H147.498C147.474 43.5526 147.443 42.8269 147.404 42.0581C147.365 41.2814 147.306 40.5047 147.227 39.728C147.102 39.9712 146.957 40.2654 146.792 40.6106C146.627 40.948 146.462 41.2932 146.298 41.6462C146.141 41.9992 145.992 42.3366 145.851 42.6582C145.709 42.9799 145.599 43.2348 145.521 43.4231H144.603C144.517 43.227 144.399 42.9681 144.25 42.6465C144.109 42.3248 143.956 41.9875 143.791 41.6344C143.634 41.2735 143.473 40.9244 143.309 40.5871C143.144 40.2419 142.999 39.9556 142.873 39.728ZM149.974 41.1872C149.974 40.6459 150.053 40.1752 150.21 39.7751C150.367 39.3672 150.575 39.0298 150.834 38.7631C151.092 38.4963 151.391 38.2963 151.728 38.1629C152.065 38.0296 152.41 37.9629 152.763 37.9629C153.587 37.9629 154.219 38.2218 154.658 38.7396C155.097 39.2495 155.317 40.0301 155.317 41.0813C155.317 41.1284 155.317 41.1912 155.317 41.2696C155.317 41.3402 155.313 41.4069 155.305 41.4697H151.116C151.163 42.1051 151.347 42.5876 151.669 42.9171C151.991 43.2466 152.493 43.4114 153.175 43.4114C153.56 43.4114 153.881 43.38 154.14 43.3172C154.407 43.2466 154.607 43.1799 154.74 43.1172L154.893 44.035C154.76 44.1057 154.525 44.1802 154.187 44.2586C153.858 44.3371 153.481 44.3763 153.058 44.3763C152.524 44.3763 152.061 44.2979 151.669 44.141C151.285 43.9762 150.967 43.7526 150.716 43.4702C150.465 43.1878 150.277 42.8543 150.151 42.4699C150.033 42.0777 149.974 41.6501 149.974 41.1872ZM154.176 40.5871C154.183 40.0928 154.058 39.6888 153.799 39.375C153.548 39.0534 153.199 38.8925 152.752 38.8925C152.501 38.8925 152.277 38.9435 152.081 39.0455C151.893 39.1397 151.732 39.2652 151.598 39.4221C151.465 39.579 151.359 39.7594 151.281 39.9634C151.21 40.1674 151.163 40.3753 151.139 40.5871H154.176ZM161.208 38.1159V39.0337H159.219V44.2351H158.125V39.0337H156.136V38.1159H161.208ZM164.407 43.4467C164.666 43.4467 164.894 43.4427 165.09 43.4349C165.294 43.4192 165.463 43.3957 165.596 43.3643V41.5403C165.518 41.5011 165.388 41.4697 165.208 41.4461C165.035 41.4148 164.823 41.3991 164.572 41.3991C164.407 41.3991 164.231 41.4108 164.043 41.4344C163.862 41.4579 163.694 41.5089 163.537 41.5874C163.388 41.658 163.262 41.7599 163.16 41.8933C163.058 42.0188 163.007 42.1875 163.007 42.3993C163.007 42.7916 163.133 43.0662 163.384 43.2231C163.635 43.3721 163.976 43.4467 164.407 43.4467ZM164.313 37.9629C164.753 37.9629 165.121 38.0217 165.419 38.1394C165.725 38.2492 165.969 38.4101 166.149 38.6219C166.337 38.8258 166.471 39.073 166.549 39.3632C166.628 39.6457 166.667 39.9595 166.667 40.3047V44.1292C166.573 44.1449 166.439 44.1684 166.267 44.1998C166.102 44.2233 165.914 44.2469 165.702 44.2704C165.49 44.2939 165.259 44.3136 165.008 44.3292C164.764 44.3528 164.521 44.3645 164.278 44.3645C163.933 44.3645 163.615 44.3292 163.325 44.2586C163.035 44.188 162.784 44.0782 162.572 43.9291C162.36 43.7722 162.195 43.5683 162.077 43.3172C161.96 43.0662 161.901 42.7641 161.901 42.4111C161.901 42.0738 161.968 41.7835 162.101 41.5403C162.242 41.2971 162.43 41.1009 162.666 40.9519C162.901 40.8028 163.176 40.693 163.49 40.6224C163.803 40.5518 164.133 40.5165 164.478 40.5165C164.588 40.5165 164.702 40.5243 164.819 40.54C164.937 40.5479 165.047 40.5636 165.149 40.5871C165.259 40.6028 165.353 40.6185 165.431 40.6342C165.51 40.6499 165.565 40.6616 165.596 40.6695V40.3635C165.596 40.1831 165.576 40.0065 165.537 39.834C165.498 39.6535 165.427 39.4966 165.325 39.3632C165.223 39.222 165.082 39.1122 164.902 39.0337C164.729 38.9474 164.502 38.9043 164.219 38.9043C163.858 38.9043 163.541 38.9318 163.266 38.9867C162.999 39.0337 162.799 39.0847 162.666 39.1397L162.536 38.2335C162.678 38.1708 162.913 38.1119 163.242 38.057C163.572 37.9943 163.929 37.9629 164.313 37.9629ZM170.615 39.0337C170.615 39.2926 170.607 39.5711 170.591 39.8693C170.583 40.1595 170.564 40.4537 170.532 40.7518C170.501 41.0421 170.458 41.3324 170.403 41.6227C170.348 41.9051 170.277 42.1718 170.191 42.4229C170.105 42.6739 169.995 42.9093 169.861 43.1289C169.736 43.3486 169.579 43.5447 169.391 43.7173C169.202 43.8821 168.983 44.0233 168.732 44.141C168.481 44.2508 168.186 44.3214 167.849 44.3528L167.696 43.4349C168.081 43.3564 168.383 43.2113 168.602 42.9995C168.83 42.7877 169.01 42.5288 169.144 42.2228C169.261 41.9561 169.348 41.654 169.402 41.3167C169.457 40.9793 169.497 40.6302 169.52 40.2694C169.544 39.9006 169.555 39.5319 169.555 39.1632C169.563 38.7945 169.567 38.4454 169.567 38.1159H173.639V44.2351H172.544V39.0337H170.615ZM177.648 39.0337C177.648 39.2926 177.64 39.5711 177.624 39.8693C177.616 40.1595 177.597 40.4537 177.565 40.7518C177.534 41.0421 177.491 41.3324 177.436 41.6227C177.381 41.9051 177.31 42.1718 177.224 42.4229C177.138 42.6739 177.028 42.9093 176.894 43.1289C176.769 43.3486 176.612 43.5447 176.424 43.7173C176.235 43.8821 176.016 44.0233 175.765 44.141C175.514 44.2508 175.22 44.3214 174.882 44.3528L174.729 43.4349C175.114 43.3564 175.416 43.2113 175.635 42.9995C175.863 42.7877 176.043 42.5288 176.177 42.2228C176.294 41.9561 176.381 41.654 176.436 41.3167C176.49 40.9793 176.53 40.6302 176.553 40.2694C176.577 39.9006 176.588 39.5319 176.588 39.1632C176.596 38.7945 176.6 38.4454 176.6 38.1159H180.672V44.2351H179.578V39.0337H177.648ZM184.622 43.4467C184.881 43.4467 185.108 43.4427 185.304 43.4349C185.508 43.4192 185.677 43.3957 185.81 43.3643V41.5403C185.732 41.5011 185.602 41.4697 185.422 41.4461C185.249 41.4148 185.038 41.3991 184.787 41.3991C184.622 41.3991 184.445 41.4108 184.257 41.4344C184.077 41.4579 183.908 41.5089 183.751 41.5874C183.602 41.658 183.476 41.7599 183.374 41.8933C183.272 42.0188 183.221 42.1875 183.221 42.3993C183.221 42.7916 183.347 43.0662 183.598 43.2231C183.849 43.3721 184.19 43.4467 184.622 43.4467ZM184.528 37.9629C184.967 37.9629 185.336 38.0217 185.634 38.1394C185.94 38.2492 186.183 38.4101 186.363 38.6219C186.552 38.8258 186.685 39.073 186.764 39.3632C186.842 39.6457 186.881 39.9595 186.881 40.3047V44.1292C186.787 44.1449 186.654 44.1684 186.481 44.1998C186.316 44.2233 186.128 44.2469 185.916 44.2704C185.704 44.2939 185.473 44.3136 185.222 44.3292C184.979 44.3528 184.736 44.3645 184.492 44.3645C184.147 44.3645 183.829 44.3292 183.539 44.2586C183.249 44.188 182.998 44.0782 182.786 43.9291C182.574 43.7722 182.409 43.5683 182.292 43.3172C182.174 43.0662 182.115 42.7641 182.115 42.4111C182.115 42.0738 182.182 41.7835 182.315 41.5403C182.457 41.2971 182.645 41.1009 182.88 40.9519C183.116 40.8028 183.39 40.693 183.704 40.6224C184.018 40.5518 184.347 40.5165 184.692 40.5165C184.802 40.5165 184.916 40.5243 185.034 40.54C185.151 40.5479 185.261 40.5636 185.363 40.5871C185.473 40.6028 185.567 40.6185 185.646 40.6342C185.724 40.6499 185.779 40.6616 185.81 40.6695V40.3635C185.81 40.1831 185.791 40.0065 185.752 39.834C185.712 39.6535 185.642 39.4966 185.54 39.3632C185.438 39.222 185.297 39.1122 185.116 39.0337C184.943 38.9474 184.716 38.9043 184.434 38.9043C184.073 38.9043 183.755 38.9318 183.48 38.9867C183.214 39.0337 183.014 39.0847 182.88 39.1397L182.751 38.2335C182.892 38.1708 183.127 38.1119 183.457 38.057C183.786 37.9943 184.143 37.9629 184.528 37.9629Z" fill="#1A1E24"/>
<path d="M73.8675 29.6394C70.8794 29.6394 68.5986 28.8084 67.025 27.1463C65.469 25.4843 64.6911 23.1239 64.6911 20.0651C64.6911 18.5445 64.9298 17.1919 65.4072 16.0073C65.8845 14.805 66.5387 13.7971 67.3697 12.9838C68.2008 12.1528 69.1909 11.5251 70.3402 11.1008C71.4894 10.6764 72.7359 10.4643 74.0797 10.4643C74.8577 10.4643 75.5649 10.5262 76.2014 10.6499C76.8379 10.756 77.3949 10.8886 77.8723 11.0477C78.3497 11.1892 78.7475 11.3395 79.0658 11.4986C79.384 11.6577 79.6139 11.7815 79.7553 11.8699L78.5619 15.2116C77.9961 14.9111 77.333 14.6547 76.5727 14.4425C75.8301 14.2303 74.9814 14.1242 74.0267 14.1242C73.3901 14.1242 72.7625 14.2303 72.1436 14.4425C71.5425 14.6547 71.0032 14.9995 70.5258 15.4768C70.0661 15.9366 69.6948 16.5377 69.4119 17.2803C69.129 18.0229 68.9876 18.9247 68.9876 19.9855C68.9876 20.8342 69.076 21.6299 69.2528 22.3725C69.4473 23.0974 69.7478 23.7251 70.1545 24.2555C70.5789 24.7859 71.127 25.2103 71.7989 25.5285C72.4707 25.8291 73.2841 25.9794 74.2388 25.9794C74.84 25.9794 75.3793 25.944 75.8567 25.8733C76.334 25.8026 76.7584 25.723 77.1297 25.6346C77.501 25.5285 77.8281 25.4136 78.111 25.2898C78.3939 25.1661 78.6503 25.0511 78.8801 24.9451L80.0205 28.2602C79.4371 28.6139 78.6149 28.9321 77.554 29.215C76.4932 29.4979 75.2643 29.6394 73.8675 29.6394ZM85.4852 20.0651C85.4852 20.9668 85.5913 21.7801 85.8035 22.5051C86.0333 23.23 86.3516 23.8577 86.7583 24.3881C87.1826 24.9008 87.6954 25.2987 88.2965 25.5816C88.8977 25.8645 89.5872 26.0059 90.3652 26.0059C91.1255 26.0059 91.8062 25.8645 92.4074 25.5816C93.0262 25.2987 93.5389 24.9008 93.9456 24.3881C94.37 23.8577 94.6882 23.23 94.9004 22.5051C95.1302 21.7801 95.2452 20.9668 95.2452 20.0651C95.2452 19.1633 95.1302 18.35 94.9004 17.6251C94.6882 16.8825 94.37 16.2548 93.9456 15.7421C93.5389 15.2116 93.0262 14.805 92.4074 14.5221C91.8062 14.2392 91.1255 14.0977 90.3652 14.0977C89.5872 14.0977 88.8977 14.248 88.2965 14.5486C87.6954 14.8315 87.1826 15.2382 86.7583 15.7686C86.3516 16.2813 86.0333 16.909 85.8035 17.6516C85.5913 18.3765 85.4852 19.181 85.4852 20.0651ZM99.5151 20.0651C99.5151 21.6387 99.2764 23.0267 98.7991 24.229C98.3393 25.4136 97.7028 26.4126 96.8895 27.2259C96.0762 28.0216 95.1037 28.6227 93.9721 29.0294C92.8582 29.436 91.6559 29.6394 90.3652 29.6394C89.1098 29.6394 87.9252 29.436 86.8113 29.0294C85.6974 28.6227 84.7249 28.0216 83.8939 27.2259C83.0629 26.4126 82.4087 25.4136 81.9313 24.229C81.4539 23.0267 81.2153 21.6387 81.2153 20.0651C81.2153 18.4915 81.4628 17.1123 81.9579 15.9277C82.4529 14.7254 83.116 13.7176 83.947 12.9043C84.7957 12.0909 85.7681 11.4809 86.8643 11.0743C87.9783 10.6676 89.1452 10.4643 90.3652 10.4643C91.6205 10.4643 92.8052 10.6676 93.9191 11.0743C95.033 11.4809 96.0054 12.0909 96.8365 12.9043C97.6675 13.7176 98.3217 14.7254 98.7991 15.9277C99.2764 17.1123 99.5151 18.4915 99.5151 20.0651ZM108.48 10.6764C111.221 10.6764 113.325 11.1627 114.793 12.1351C116.26 13.0899 116.994 14.6635 116.994 16.856C116.994 19.0661 116.251 20.6662 114.766 21.6564C113.281 22.6288 111.159 23.1151 108.401 23.1151H107.101V29.2681H102.964V11.1538C103.866 10.977 104.82 10.8533 105.828 10.7825C106.836 10.7118 107.72 10.6764 108.48 10.6764ZM108.746 14.2038C108.445 14.2038 108.145 14.2127 107.844 14.2303C107.561 14.248 107.314 14.2657 107.101 14.2834V19.5877H108.401C109.833 19.5877 110.912 19.3932 111.637 19.0042C112.361 18.6152 112.724 17.8903 112.724 16.8294C112.724 16.3167 112.627 15.8924 112.432 15.5564C112.255 15.2205 111.99 14.9553 111.637 14.7608C111.301 14.5486 110.885 14.4071 110.39 14.3364C109.895 14.248 109.347 14.2038 108.746 14.2038ZM134.001 10.8886V14.416H128.458V29.2681H124.32V14.416H118.777V10.8886H134.001ZM141.281 10.8886C141.599 11.4721 141.962 12.197 142.368 13.0634C142.793 13.9121 143.226 14.8403 143.668 15.8481C144.127 16.8383 144.578 17.8549 145.02 18.8981C145.462 19.9413 145.878 20.9226 146.267 21.842C146.656 20.9226 147.071 19.9413 147.513 18.8981C147.955 17.8549 148.397 16.8383 148.839 15.8481C149.299 14.8403 149.732 13.9121 150.139 13.0634C150.563 12.197 150.935 11.4721 151.253 10.8886H155.019C155.196 12.1086 155.355 13.4789 155.496 14.9995C155.656 16.5023 155.788 18.076 155.894 19.7203C156.018 21.347 156.124 22.9825 156.212 24.6268C156.319 26.2711 156.407 27.8182 156.478 29.2681H152.446C152.393 27.4823 152.323 25.5374 152.234 23.4333C152.146 21.3293 152.013 19.2075 151.836 17.0681C151.518 17.8107 151.165 18.6329 150.776 19.5346C150.387 20.4364 149.998 21.3381 149.609 22.2398C149.237 23.1416 148.875 24.008 148.521 24.839C148.168 25.6523 147.867 26.3507 147.619 26.9342H144.729C144.481 26.3507 144.181 25.6523 143.827 24.839C143.473 24.008 143.102 23.1416 142.713 22.2398C142.342 21.3381 141.962 20.4364 141.573 19.5346C141.184 18.6329 140.83 17.8107 140.512 17.0681C140.335 19.2075 140.202 21.3293 140.114 23.4333C140.025 25.5374 139.955 27.4823 139.902 29.2681H135.87C135.941 27.8182 136.021 26.2711 136.109 24.6268C136.215 22.9825 136.321 21.347 136.427 19.7203C136.551 18.076 136.684 16.5023 136.825 14.9995C136.984 13.4789 137.152 12.1086 137.329 10.8886H141.281ZM160.203 29.2681V10.8886H172.615V14.3629H164.34V17.9699H171.687V21.3646H164.34V25.7937H173.225V29.2681H160.203ZM189.919 10.8886V14.416H184.376V29.2681H180.239V14.416H174.696V10.8886H189.919Z" fill="#1A1E24"/>
<rect width="11.0135" height="13.6605" transform="matrix(0.865624 -0.500694 2.19898e-08 1 40.8779 20.7177)" fill="url(#paint0_linear_207_4362)"/>
<rect width="18.152" height="7.8506" transform="matrix(-0.865624 -0.500694 -2.19898e-08 1 25.2463 43.3626)" fill="url(#paint1_linear_207_4362)"/>
<rect width="18.152" height="7.73696" transform="matrix(0.865624 -0.500694 2.19898e-08 1 25.2463 43.4762)" fill="url(#paint2_linear_207_4362)"/>
<path fill-rule="evenodd" clip-rule="evenodd" d="M25.2006 37.9336L36.1754 31.5856L41.0703 34.4169L25.3575 43.5055L20.4626 40.6741L20.4627 40.6741L9.51538 34.3419L14.2532 31.6015L25.2006 37.9336Z" fill="url(#paint3_linear_207_4362)"/>
<path fill-rule="evenodd" clip-rule="evenodd" d="M14.271 17.9501L25.1651 11.6488V17.9522L14.2712 24.2535L14.2712 31.6147L9.49292 34.3785L9.49292 20.7142L14.271 17.9504V17.9501Z" fill="url(#paint4_linear_207_4362)"/>
<rect width="11.0135" height="13.6605" transform="matrix(-0.865624 -0.500694 -2.19898e-08 1 9.53369 20.7177)" fill="url(#paint5_linear_207_4362)"/>
<path fill-rule="evenodd" clip-rule="evenodd" d="M36.0999 17.9501L25.1653 11.6253V17.9288L36.0998 24.2536V31.6145L40.8781 34.3784V20.714L36.0999 17.9503V17.9501Z" fill="url(#paint6_linear_207_4362)"/>
<path fill-rule="evenodd" clip-rule="evenodd" d="M0 15.2036L25.1654 0.647461L25.2059 0.670886L25.2464 0.647461L50.4117 15.2036L40.8786 20.7177L25.2059 11.6523L9.5331 20.7177L0 15.2036Z" fill="url(#paint7_linear_207_4362)"/>
<defs>
<linearGradient id="paint0_linear_207_4362" x1="-1.00222" y1="-3.40182" x2="15.2701" y2="4.42235" gradientUnits="userSpaceOnUse">
<stop stop-color="#0048BD"/>
<stop offset="1" stop-color="#0054DC"/>
</linearGradient>
<linearGradient id="paint1_linear_207_4362" x1="18.0236" y1="-0.071997" x2="8.78328" y2="13.6327" gradientUnits="userSpaceOnUse">
<stop stop-color="#005FDB"/>
<stop offset="1" stop-color="#0068F0"/>
</linearGradient>
<linearGradient id="paint2_linear_207_4362" x1="1.46508" y1="-0.249172" x2="10.8474" y2="-6.2247" gradientUnits="userSpaceOnUse">
<stop stop-color="#0048BD"/>
<stop offset="1" stop-color="#0054DC"/>
</linearGradient>
<linearGradient id="paint3_linear_207_4362" x1="9.64462" y1="32.3525" x2="38.3258" y2="36.7309" gradientUnits="userSpaceOnUse">
<stop stop-color="#0F83FF"/>
<stop offset="1" stop-color="#3094FF"/>
</linearGradient>
<linearGradient id="paint4_linear_207_4362" x1="17.329" y1="11.6488" x2="19.098" y2="23.5632" gradientUnits="userSpaceOnUse">
<stop stop-color="#0048BD"/>
<stop offset="1" stop-color="#0054DC"/>
</linearGradient>
<linearGradient id="paint5_linear_207_4362" x1="-3.24638" y1="-7.90569" x2="15.6973" y2="5.47249" gradientUnits="userSpaceOnUse">
<stop stop-color="#005FDB"/>
<stop offset="1" stop-color="#0068F0"/>
</linearGradient>
<linearGradient id="paint6_linear_207_4362" x1="21.791" y1="16.8037" x2="40.6899" y2="21.8566" gradientUnits="userSpaceOnUse">
<stop stop-color="#005FDB"/>
<stop offset="1" stop-color="#0068F0"/>
</linearGradient>
<linearGradient id="paint7_linear_207_4362" x1="14.3681" y1="-0.435505" x2="41.7285" y2="17.7711" gradientUnits="userSpaceOnUse">
<stop stop-color="#0F83FF"/>
<stop offset="1" stop-color="#3094FF"/>
</linearGradient>
</defs>
</svg>
