<svg width="0" height="0" class="hidden">
  <symbol fill="none" xmlns="http://www.w3.org/2000/svg" viewBox="0 0 24 24" id="wa">
    <path d="M1.80445 11.6703C1.80381 13.4791 2.27698 15.2449 3.17671 16.8016L1.71826 22.1203L7.16764 20.6931C8.66905 21.5103 10.3595 21.9417 12.0799 21.9422H12.0843C17.7498 21.9422 22.3612 17.3376 22.3637 11.6784C22.3647 8.93584 21.2964 6.35735 19.3555 4.41709C17.4149 2.47711 14.834 1.40815 12.0838 1.40686C6.41808 1.40686 1.80665 6.01086 1.80419 11.6704L1.80445 11.6703ZM12.0842 21.9422H12.0843H12.0842C12.084 21.9422 12.0839 21.9422 12.0842 21.9422Z" fill="#F2F2FD"></path>
    <path fill-rule="evenodd" clip-rule="evenodd" d="M9.42414 7.22184C9.22479 6.77928 9.01505 6.77042 8.82546 6.76264C8.67029 6.75605 8.49283 6.75648 8.31557 6.75648C8.1381 6.75648 7.84985 6.82299 7.60612 7.08891C7.36216 7.35485 6.6748 7.9977 6.6748 9.30511C6.6748 10.6126 7.62834 11.876 7.76118 12.0535C7.89426 12.2307 9.60186 14.9995 12.306 16.0646C14.5536 16.9498 15.011 16.7738 15.4988 16.7294C15.9866 16.6852 17.073 16.0868 17.2946 15.4662C17.5164 14.8458 17.5164 14.3139 17.4499 14.2028C17.3834 14.0921 17.2059 14.0256 16.9399 13.8928C16.6737 13.7599 15.3657 13.1169 15.1218 13.0282C14.8779 12.9397 14.7005 12.8954 14.523 13.1615C14.3457 13.4272 13.8361 14.0256 13.6808 14.2028C13.5257 14.3804 13.3704 14.4026 13.1043 14.2697C12.8382 14.1363 11.9813 13.856 10.9647 12.9508C10.1737 12.2464 9.63979 11.3766 9.48451 11.1105C9.32934 10.8448 9.46794 10.7009 9.60134 10.5684C9.72089 10.4493 9.8675 10.2581 10.0006 10.103C10.1333 9.94779 10.1776 9.83705 10.2663 9.65979C10.3551 9.48242 10.3107 9.32722 10.2442 9.19429C10.1776 9.06138 9.66057 7.74724 9.42398 7.22176" fill="#1BC100"></path>
  </symbol>
  <symbol fill="none" xmlns="http://www.w3.org/2000/svg" viewBox="0 0 42 42" id="stocks">
    <g clip-path="url(#clip0_266_4314)">
      <path d="M20.9998 5.25L34.6397 13.125V26.8543C34.6397 28.1047 33.9726 29.2601 32.8897 29.8854L22.7498 35.7396C21.6669 36.3649 20.3327 36.3649 19.2498 35.7396L9.10986 29.8854C8.02696 29.2601 7.35986 28.1047 7.35986 26.8543V13.125L20.9998 5.25Z" stroke="#0077FF" stroke-width="3.5" stroke-linecap="round" stroke-linejoin="round"></path>
      <path d="M21.0001 12.25V21L13.4224 25.375" stroke="#0077FF" stroke-width="3.5" stroke-linecap="round" stroke-linejoin="round"></path>
      <path d="M20.9999 21L28.5776 25.375" stroke="#0077FF" stroke-width="3.5" stroke-linecap="round" stroke-linejoin="round"></path>
    </g>
    <defs>
      <clipPath id="clip0_266_4314">
        <rect width="42" height="42" fill="white"></rect>
      </clipPath>
    </defs>
  </symbol>
  <symbol fill="none" xmlns="http://www.w3.org/2000/svg" viewBox="0 0 42 42" id="profile">
    <g clip-path="url(#clip0_207_4536)">
      <path d="M7 28.5C7 26.2909 8.79086 24.5 11 24.5H31C33.2091 24.5 35 26.2909 35 28.5V33C35 34.1046 34.1046 35 33 35H9C7.89543 35 7 34.1046 7 33V28.5Z" stroke="#0077FF" stroke-width="3.5" stroke-linejoin="round"></path>
      <circle cx="21" cy="12.25" r="5.25" stroke="#0077FF" stroke-width="3.5"></circle>
    </g>
    <defs>
      <clipPath id="clip0_207_4536">
        <rect width="42" height="42" fill="white"></rect>
      </clipPath>
    </defs>
  </symbol>
  <symbol fill="none" xmlns="http://www.w3.org/2000/svg" viewBox="0 0 24 24" id="arrow-down-black">
    <g clip-path="url(#clip0_207_4340)">
      <path d="M7 10L12 15L17 10" stroke="#1A1E24" stroke-width="2" stroke-linecap="round" stroke-linejoin="round"></path>
    </g>
    <defs>
      <clipPath id="clip0_207_4340">
        <rect width="24" height="24" fill="white"></rect>
      </clipPath>
    </defs>
  </symbol>
  <symbol fill="none" xmlns="http://www.w3.org/2000/svg" viewBox="0 0 42 42" id="cart-blue">
    <g clip-path="url(#clip0_207_4533)">
      <path d="M5.25 5.25C4.2835 5.25 3.5 6.0335 3.5 7C3.5 7.9665 4.2835 8.75 5.25 8.75V5.25ZM8.75 7L10.4928 6.84156C10.4109 5.94017 9.65511 5.25 8.75 5.25V7ZM36.75 12.25L38.4824 12.4975C38.5542 11.9953 38.4044 11.4866 38.072 11.1034C37.7397 10.7201 37.2573 10.5 36.75 10.5V12.25ZM9.22727 12.25L7.48446 12.4084L9.22727 12.25ZM13.9242 26.0054L13.7995 24.2599L13.9242 26.0054ZM10.1892 22.8312L8.44639 22.9896L10.1892 22.8312ZM5.25 8.75H8.75V5.25H5.25V8.75ZM14.0489 27.751L32.3085 26.4467L32.0591 22.9556L13.7995 24.2599L14.0489 27.751ZM37.1317 21.9525L38.4824 12.4975L35.0176 12.0025L33.6669 21.4575L37.1317 21.9525ZM7.00719 7.15844L7.48446 12.4084L10.9701 12.0916L10.4928 6.84156L7.00719 7.15844ZM7.48446 12.4084L8.44639 22.9896L11.932 22.6727L10.9701 12.0916L7.48446 12.4084ZM36.75 10.5H9.22727V14H36.75V10.5ZM32.3085 26.4467C34.7736 26.2706 36.7822 24.3991 37.1317 21.9525L33.6669 21.4575C33.5504 22.2731 32.8809 22.8969 32.0591 22.9556L32.3085 26.4467ZM13.7995 24.2599C12.8486 24.3278 12.0183 23.6221 11.932 22.6727L8.44639 22.9896C8.70531 25.8378 11.1962 27.9547 14.0489 27.751L13.7995 24.2599Z" fill="#0077FF"></path>
      <circle cx="14.875" cy="34.125" r="2.625" fill="#0077FF"></circle>
      <circle cx="30.625" cy="34.125" r="2.625" fill="#0077FF"></circle>
    </g>
    <defs>
      <clipPath id="clip0_207_4533">
        <rect width="42" height="42" fill="white"></rect>
      </clipPath>
    </defs>
  </symbol>
  <symbol fill="none" xmlns="http://www.w3.org/2000/svg" viewBox="0 0 42 42" id="delivery">
    <path d="M1.75 5.25C0.783502 5.25 -2.38419e-07 6.0335 -2.38419e-07 7C-2.38419e-07 7.9665 0.783502 8.75 1.75 8.75V5.25ZM26.25 7H28C28 6.0335 27.2165 5.25 26.25 5.25V7ZM26.25 14V12.25C25.7859 12.25 25.3408 12.4344 25.0126 12.7626C24.6844 13.0908 24.5 13.5359 24.5 14H26.25ZM35.7249 29.0251L36.9623 27.7877L35.7249 29.0251ZM35.7249 33.9749L36.9623 35.2123L35.7249 33.9749ZM3.5 28C3.5 27.0335 2.7165 26.25 1.75 26.25C0.783502 26.25 -2.38419e-07 27.0335 -2.38419e-07 28H3.5ZM1.75 8.75H26.25V5.25H1.75V8.75ZM24.5 7V31.5H28V7H24.5ZM26.25 15.75H33.25V12.25H26.25V15.75ZM38.5 21V28H42V21H38.5ZM28 31.5L28 14H24.5L24.5 31.5H28ZM34.4874 32.7374C33.804 33.4209 32.696 33.4209 32.0126 32.7374L29.5377 35.2123C31.5879 37.2626 34.9121 37.2626 36.9623 35.2123L34.4874 32.7374ZM32.0126 30.2626C32.696 29.5791 33.804 29.5791 34.4874 30.2626L36.9623 27.7877C34.9121 25.7374 31.5879 25.7374 29.5377 27.7877L32.0126 30.2626ZM11.7374 32.7374C11.054 33.4209 9.94598 33.4209 9.26256 32.7374L6.78769 35.2123C8.83794 37.2626 12.1621 37.2626 14.2123 35.2123L11.7374 32.7374ZM9.26256 30.2626C9.94598 29.5791 11.054 29.5791 11.7374 30.2626L14.2123 27.7877C12.1621 25.7374 8.83794 25.7374 6.78769 27.7877L9.26256 30.2626ZM34.4874 30.2626C34.8295 30.6046 35 31.0494 35 31.5H38.5C38.5 30.1591 37.9871 28.8125 36.9623 27.7877L34.4874 30.2626ZM35 31.5C35 31.9506 34.8295 32.3954 34.4874 32.7374L36.9623 35.2123C37.9871 34.1875 38.5 32.8409 38.5 31.5H35ZM29.75 29.75H26.25V33.25H29.75V29.75ZM32.0126 32.7374C31.6705 32.3954 31.5 31.9506 31.5 31.5H28C28 32.8409 28.5129 34.1875 29.5377 35.2123L32.0126 32.7374ZM31.5 31.5C31.5 31.0494 31.6705 30.6046 32.0126 30.2626L29.5377 27.7877C28.5129 28.8125 28 30.1591 28 31.5H31.5ZM9.26256 32.7374C8.92051 32.3954 8.75 31.9506 8.75 31.5H5.25C5.25 32.8409 5.76291 34.1875 6.78769 35.2123L9.26256 32.7374ZM8.75 31.5C8.75 31.0494 8.92051 30.6046 9.26256 30.2626L6.78769 27.7877C5.76291 28.8125 5.25 30.1591 5.25 31.5H8.75ZM7 29.75H5.1975V33.25H7V29.75ZM26.25 29.75H14V33.25H26.25V29.75ZM11.7374 30.2626C12.0795 30.6046 12.25 31.0494 12.25 31.5H15.75C15.75 30.1591 15.2371 28.8125 14.2123 27.7877L11.7374 30.2626ZM12.25 31.5C12.25 31.9506 12.0795 32.3954 11.7374 32.7374L14.2123 35.2123C15.2371 34.1875 15.75 32.8409 15.75 31.5H12.25ZM3.5 28.0525V28H-2.38419e-07V28.0525H3.5ZM38.5 28C38.5 28.9665 37.7165 29.75 36.75 29.75V33.25C39.6495 33.25 42 30.8995 42 28H38.5ZM33.25 15.75C36.1495 15.75 38.5 18.1005 38.5 21H42C42 16.1675 38.0825 12.25 33.25 12.25V15.75ZM5.1975 29.75C4.26 29.75 3.5 28.99 3.5 28.0525H-2.38419e-07C-2.38419e-07 30.923 2.327 33.25 5.1975 33.25V29.75Z" fill="#0077FF"></path>
    <path d="M1.75 14H8.75" stroke="#0077FF" stroke-width="3.5" stroke-linecap="round" stroke-linejoin="round"></path>
    <path d="M1.75 21H12.25" stroke="#0077FF" stroke-width="3.5" stroke-linecap="round" stroke-linejoin="round"></path>
  </symbol>
  <symbol fill="none" xmlns="http://www.w3.org/2000/svg" viewBox="0 0 31 30" id="compare">
    <g clip-path="url(#clip0_207_5273)">
      <path d="M23 5L23 25M15.5 12.5L15.5 25M8 20L8 25" stroke="#242328" stroke-width="2.5" stroke-linecap="round" stroke-linejoin="round"></path>
    </g>
    <defs>
      <clipPath id="clip0_207_5273">
        <rect width="30" height="30" fill="white" transform="translate(0.5)"></rect>
      </clipPath>
    </defs>
  </symbol>
  <symbol fill="none" xmlns="http://www.w3.org/2000/svg" viewBox="0 0 36 36" id="arrow-right-blue">
    <g clip-path="url(#clip0_207_4476)">
      <path d="M15 25.5L22.5 18L15 10.5" stroke="#0077FF" stroke-width="3" stroke-linecap="round" stroke-linejoin="round"></path>
    </g>
    <defs>
      <clipPath id="clip0_207_4476">
        <rect width="36" height="36" fill="white" transform="translate(0 36) rotate(-90)"></rect>
      </clipPath>
    </defs>
  </symbol>
  <symbol fill="none" xmlns="http://www.w3.org/2000/svg" viewBox="0 0 31 30" id="cart-black">
    <g clip-path="url(#clip0_207_5285)">
      <path d="M4.25 3.75C3.55964 3.75 3 4.30964 3 5C3 5.69036 3.55964 6.25 4.25 6.25V3.75ZM6.75 5L7.99487 4.88683C7.93633 4.24298 7.3965 3.75 6.75 3.75V5ZM26.75 8.75L27.9874 8.92678C28.0387 8.56805 27.9317 8.20475 27.6943 7.931C27.4569 7.65725 27.1124 7.5 26.75 7.5V8.75ZM7.09091 8.75L5.84604 8.86317L7.09091 8.75ZM23.4884 17.6437L23.3994 16.3969L23.4884 17.6437ZM25.7852 15.5036L24.5478 15.3268L25.7852 15.5036ZM4.25 6.25H6.75V3.75H4.25V6.25ZM10.5349 19.8221L23.5775 18.8905L23.3994 16.3969L10.3568 17.3285L10.5349 19.8221ZM27.0226 15.6804L27.9874 8.92678L25.5126 8.57322L24.5478 15.3268L27.0226 15.6804ZM5.50513 5.11317L5.84604 8.86317L8.33578 8.63683L7.99487 4.88683L5.50513 5.11317ZM5.84604 8.86317L6.53313 16.4212L9.02287 16.1948L8.33578 8.63683L5.84604 8.86317ZM26.75 7.5H7.09091V10H26.75V7.5ZM23.5775 18.8905C25.3383 18.7647 26.773 17.4279 27.0226 15.6804L24.5478 15.3268C24.4645 15.9093 23.9863 16.3549 23.3994 16.3969L23.5775 18.8905ZM10.3568 17.3285C9.67759 17.377 9.08451 16.873 9.02287 16.1948L6.53313 16.4212C6.71808 18.4556 8.49732 19.9677 10.5349 19.8221L10.3568 17.3285Z" fill="#242328"></path>
      <circle cx="11.125" cy="24.375" r="1.875" fill="#242328"></circle>
      <circle cx="22.375" cy="24.375" r="1.875" fill="#242328"></circle>
    </g>
    <defs>
      <clipPath id="clip0_207_5285">
        <rect width="30" height="30" fill="white" transform="translate(0.5)"></rect>
      </clipPath>
    </defs>
  </symbol>
  <symbol fill="none" xmlns="http://www.w3.org/2000/svg" viewBox="0 0 24 24" id="hamburger">
    <path d="M3 6H21M3 12H21M3 18H21" stroke="white" stroke-width="2" stroke-linecap="round" stroke-linejoin="round"></path>
  </symbol>
  <symbol fill="none" xmlns="http://www.w3.org/2000/svg" viewBox="0 0 24 24" id="search">
    <path d="M21 21L16.6569 16.6569M16.6569 16.6569C18.1046 15.2091 19 13.2091 19 11C19 6.58172 15.4183 3 11 3C6.58172 3 3 6.58172 3 11C3 15.4183 6.58172 19 11 19C13.2091 19 15.2091 18.1046 16.6569 16.6569Z" stroke="white" stroke-width="2" stroke-linecap="round" stroke-linejoin="round"></path>
  </symbol>
  <symbol fill="none" xmlns="http://www.w3.org/2000/svg" viewBox="0 0 24 24" id="tg">
    <path d="M11.8635 22.6364C17.8132 22.6364 22.6363 17.8133 22.6363 11.8636C22.6363 5.91403 17.8132 1.09091 11.8635 1.09091C5.91393 1.09091 1.09082 5.91403 1.09082 11.8636C1.09082 17.8133 5.91393 22.6364 11.8635 22.6364Z" fill="#F2F2FD"></path>
    <path fill-rule="evenodd" clip-rule="evenodd" d="M5.96734 11.7501C9.10781 10.3818 11.202 9.4798 12.2498 9.04399C15.2415 7.79963 15.8631 7.58348 16.2683 7.57634C16.3574 7.57477 16.5567 7.59686 16.6857 7.70159C16.7947 7.79002 16.8247 7.90948 16.8391 7.99333C16.8534 8.07717 16.8713 8.26817 16.8571 8.41741C16.6949 10.1208 15.9935 14.2546 15.6366 16.1624C15.4856 16.9697 15.1882 17.2404 14.9004 17.2669C14.2748 17.3245 13.7997 16.8535 13.1938 16.4563C12.2457 15.8348 11.71 15.4479 10.7897 14.8414C9.72608 14.1405 10.4156 13.7553 11.0217 13.1257C11.1803 12.9609 13.9367 10.4538 13.9901 10.2264C13.9967 10.1979 14.0029 10.0919 13.9399 10.0359C13.877 9.97991 13.784 9.99906 13.7169 10.0143C13.6218 10.0359 12.1071 11.037 9.1729 13.0177C8.74297 13.3129 8.35355 13.4568 8.00464 13.4492C7.62 13.4409 6.8801 13.2317 6.33007 13.0529C5.65542 12.8336 5.11923 12.7177 5.16592 12.3453C5.19024 12.1513 5.45738 11.9529 5.96734 11.7501Z" fill="#49BEFF"></path>
  </symbol>
  <symbol fill="none" xmlns="http://www.w3.org/2000/svg" viewBox="0 0 42 42" id="flag">
    <g clip-path="url(#clip0_266_4307)">
      <path d="M14 5.25L14 8.75M14 36.75L14 22.75M14 8.75L35 8.75L31.5 15.75L35 22.75L14 22.75M14 8.75L14 22.75" stroke="#0077FF" stroke-width="3.5" stroke-linecap="round" stroke-linejoin="round"></path>
    </g>
    <defs>
      <clipPath id="clip0_266_4307">
        <rect width="42" height="42" fill="white"></rect>
      </clipPath>
    </defs>
  </symbol>
  <symbol fill="none" xmlns="http://www.w3.org/2000/svg" viewBox="0 0 24 24" id="vk">
    <path d="M0.727051 11.4182C0.727051 6.37842 0.727051 3.85856 2.2927 2.29291C3.85835 0.727264 6.3782 0.727264 11.418 0.727264H12.3089C17.3486 0.727264 19.8685 0.727264 21.4342 2.29291C22.9998 3.85856 22.9998 6.37842 22.9998 11.4182V12.3091C22.9998 17.3489 22.9998 19.8687 21.4342 21.4344C19.8685 23 17.3486 23 12.3089 23H11.418C6.3782 23 3.85835 23 2.2927 21.4344C0.727051 19.8687 0.727051 17.3489 0.727051 12.3091V11.4182Z" fill="#F2F2FD"></path>
    <path d="M12.5777 16.7727C7.50141 16.7727 4.606 13.2926 4.48535 7.50168H7.02816C7.11168 11.7521 8.98626 13.5524 10.4711 13.9237V7.50168H12.8655V11.1674C14.3318 11.0096 15.8722 9.33918 16.3919 7.50168H18.7862C18.3872 9.76607 16.7167 11.4365 15.5288 12.1233C16.7167 12.6801 18.6193 14.1371 19.3431 16.7727H16.7074C16.1413 15.0095 14.7309 13.6452 12.8655 13.4596V16.7727H12.5777Z" fill="#0F83FF"></path>
  </symbol>
  <symbol fill="none" xmlns="http://www.w3.org/2000/svg" viewBox="0 0 36 36" id="arrow-left-blue">
    <g clip-path="url(#clip0_207_4470)">
      <path d="M21 10.5L13.5 18L21 25.5" stroke="#0077FF" stroke-width="3" stroke-linecap="round" stroke-linejoin="round"></path>
    </g>
    <defs>
      <clipPath id="clip0_207_4470">
        <rect width="36" height="36" fill="white" transform="translate(36) rotate(90)"></rect>
      </clipPath>
    </defs>
  </symbol>
  <symbol fill="none" xmlns="http://www.w3.org/2000/svg" viewBox="0 0 42 42" id="deferment">
    <g clip-path="url(#clip0_207_4500)">
      <path d="M36.2136 16.9237C38.4649 25.3258 33.4788 33.9621 25.0767 36.2134C16.6746 38.4647 8.03828 33.4786 5.78694 25.0765C3.53561 16.6744 8.52178 8.03806 16.9239 5.78673C21.703 4.50616 26.5579 5.56719 30.2705 8.26654" stroke="#0077FF" stroke-width="3.5" stroke-linecap="round" stroke-linejoin="round"></path>
      <path d="M29.6016 2.38965L31.4133 9.15113L24.6518 10.9629" stroke="#0077FF" stroke-width="3.5" stroke-linecap="round" stroke-linejoin="round"></path>
      <path d="M15.9052 27.3563C15.6167 27.3563 15.3121 27.3349 14.9915 27.2922C14.6708 27.2601 14.3609 27.212 14.0617 27.1479C13.7624 27.0838 13.4899 27.0143 13.2441 26.9395C12.9983 26.8647 12.8059 26.7952 12.667 26.7311L13.1319 24.7433C13.4098 24.8608 13.7624 24.9891 14.1899 25.128C14.6281 25.2563 15.1678 25.3204 15.809 25.3204C16.5464 25.3204 17.0861 25.1814 17.4281 24.9036C17.7701 24.6257 17.9411 24.2517 17.9411 23.7814C17.9411 23.4929 17.877 23.2524 17.7488 23.06C17.6312 22.857 17.4655 22.6967 17.2518 22.5791C17.0381 22.4509 16.7816 22.3654 16.4823 22.3226C16.1938 22.2692 15.8838 22.2425 15.5525 22.2425H14.6227V20.3188H15.6808C15.9159 20.3188 16.1403 20.2974 16.3541 20.2547C16.5785 20.2119 16.7762 20.1424 16.9472 20.0463C17.1182 19.9394 17.2518 19.8004 17.348 19.6295C17.4549 19.4478 17.5083 19.2233 17.5083 18.9562C17.5083 18.7531 17.4655 18.5768 17.38 18.4271C17.2945 18.2775 17.1823 18.1546 17.0434 18.0584C16.9152 17.9622 16.7602 17.8928 16.5785 17.85C16.4075 17.7966 16.2312 17.7699 16.0495 17.7699C15.5899 17.7699 15.1625 17.8393 14.767 17.9783C14.3823 18.1172 14.0296 18.2882 13.709 18.4913L12.8594 16.7439C13.0304 16.637 13.2281 16.5248 13.4525 16.4073C13.6876 16.2897 13.9441 16.1828 14.222 16.0866C14.4998 15.9905 14.7937 15.9103 15.1037 15.8462C15.4243 15.7821 15.7609 15.75 16.1136 15.75C16.7655 15.75 17.3266 15.8302 17.7968 15.9905C18.2778 16.1401 18.6732 16.3592 18.9831 16.6477C19.2931 16.9256 19.5228 17.2569 19.6724 17.6416C19.8221 18.0157 19.8969 18.4271 19.8969 18.876C19.8969 19.3142 19.774 19.7417 19.5282 20.1585C19.2824 20.5646 18.9511 20.8745 18.5343 21.0883C19.1114 21.3234 19.5549 21.676 19.8648 22.1463C20.1854 22.6058 20.3457 23.1616 20.3457 23.8135C20.3457 24.3265 20.2602 24.8021 20.0892 25.2402C19.9183 25.6677 19.6511 26.0418 19.2877 26.3624C18.9243 26.6723 18.4594 26.9181 17.893 27.0998C17.3373 27.2708 16.6747 27.3563 15.9052 27.3563Z" fill="#0077FF"></path>
      <path d="M29.9219 21.5371C29.9219 23.4074 29.5639 24.8448 28.8478 25.8494C28.1425 26.8433 27.1646 27.3403 25.9142 27.3403C24.6638 27.3403 23.6806 26.8433 22.9645 25.8494C22.2592 24.8448 21.9065 23.4074 21.9065 21.5371C21.9065 20.6073 21.9973 19.7844 22.179 19.0684C22.3714 18.3523 22.6439 17.7485 22.9966 17.2569C23.3493 16.7653 23.7714 16.3912 24.263 16.1347C24.7546 15.8782 25.305 15.75 25.9142 15.75C27.1646 15.75 28.1425 16.2523 28.8478 17.2569C29.5639 18.2508 29.9219 19.6775 29.9219 21.5371ZM27.4852 21.5371C27.4852 20.9814 27.4585 20.4791 27.405 20.0302C27.3516 19.5707 27.2661 19.1752 27.1486 18.8439C27.031 18.5126 26.8707 18.2561 26.6676 18.0745C26.4646 17.8928 26.2134 17.8019 25.9142 17.8019C25.6149 17.8019 25.3638 17.8928 25.1607 18.0745C24.9684 18.2561 24.8081 18.5126 24.6798 18.8439C24.5623 19.1752 24.4768 19.5707 24.4233 20.0302C24.3699 20.4791 24.3432 20.9814 24.3432 21.5371C24.3432 22.0928 24.3699 22.6005 24.4233 23.06C24.4768 23.5196 24.5623 23.915 24.6798 24.2463C24.8081 24.5776 24.9684 24.8341 25.1607 25.0158C25.3638 25.1975 25.6149 25.2883 25.9142 25.2883C26.2134 25.2883 26.4646 25.1975 26.6676 25.0158C26.8707 24.8341 27.031 24.5776 27.1486 24.2463C27.2661 23.915 27.3516 23.5196 27.405 23.06C27.4585 22.6005 27.4852 22.0928 27.4852 21.5371Z" fill="#0077FF"></path>
    </g>
    <defs>
      <clipPath id="clip0_207_4500">
        <rect width="42" height="42" fill="white"></rect>
      </clipPath>
    </defs>
  </symbol>
  <symbol fill="none" xmlns="http://www.w3.org/2000/svg" viewBox="0 0 31 30" id="like">
    <g clip-path="url(#clip0_207_5279)">
      <path d="M24.3388 16.4278L17.2678 23.4988C16.2914 24.4752 14.7085 24.4752 13.7322 23.4988L6.66115 16.4278C4.22037 13.987 4.22037 10.0297 6.66115 7.58894C9.10193 5.14817 13.0592 5.14817 15.5 7.58894C17.9408 5.14817 21.898 5.14817 24.3388 7.58894C26.7796 10.0297 26.7796 13.987 24.3388 16.4278Z" stroke="#242328" stroke-width="2.5" stroke-linecap="round" stroke-linejoin="round"></path>
    </g>
    <defs>
      <clipPath id="clip0_207_5279">
        <rect width="30" height="30" fill="white" transform="translate(0.5)"></rect>
      </clipPath>
    </defs>
  </symbol>
  <symbol fill="none" xmlns="http://www.w3.org/2000/svg" viewBox="0 0 32 32" id="arrow-down-gray">
    <g clip-path="url(#clip0_207_4695)">
      <path d="M22.6665 13.3333L15.9998 20L9.33317 13.3333" stroke="#ADB3BE" stroke-width="2.66667" stroke-linecap="round" stroke-linejoin="round"></path>
    </g>
    <defs>
      <clipPath id="clip0_207_4695">
        <rect width="32" height="32" fill="white" transform="matrix(-1 -8.74228e-08 -8.74228e-08 1 32 0)"></rect>
      </clipPath>
    </defs>
  </symbol>
  <symbol fill="none" xmlns="http://www.w3.org/2000/svg" viewBox="0 0 42 42" id="card">
    <path d="M5.25 15.75H21H36.75M5.25 8.75H36.75V29.75C36.75 31.683 35.183 33.25 33.25 33.25H8.75C6.817 33.25 5.25 31.683 5.25 29.75V8.75Z" stroke="#0077FF" stroke-width="3.5" stroke-linecap="round" stroke-linejoin="round"></path>
    <path d="M12.25 22.75H17.5" stroke="#0077FF" stroke-width="3.5" stroke-linecap="round" stroke-linejoin="round"></path>
  </symbol>
  <symbol fill="none" xmlns="http://www.w3.org/2000/svg" viewBox="0 0 24 24" id="gm">
    <path d="M9.13037 17.5117C9.79451 18.3423 10.4709 19.3867 10.8249 20.0175C11.256 20.8376 11.4347 21.3914 11.7554 22.3832C11.9429 22.9264 12.1216 23.0912 12.4966 23.0912C12.9067 23.0912 13.0942 22.8143 13.2379 22.3832C13.5375 21.4527 13.7688 20.7448 14.1351 20.0701C15.5475 17.4065 17.85 15.514 19.1468 12.9206C19.1468 12.9206 20.0002 11.3364 20.0002 9.11797C20.0002 7.0502 19.159 5.61328 19.159 5.61328L9.13563 17.5292L9.13037 17.5117Z" fill="#34A853"></path>
    <path d="M5.73102 12.6399C6.53885 14.4799 8.07916 16.092 9.13056 17.5114L14.703 10.9051C14.703 10.9051 13.9162 11.9355 12.4951 11.9355C10.9109 11.9355 9.62122 10.6738 9.62122 9.07916C9.62122 7.9822 10.2748 7.22168 10.2748 7.22168C6.17436 7.8315 6.40216 8.82507 5.71875 12.6364L5.73102 12.6399Z" fill="#FBBC04"></path>
    <path d="M14.7727 1.91016C16.6302 2.50771 18.2073 3.76764 19.1536 5.6076L14.7026 10.9172C14.7026 10.9172 15.3563 10.1532 15.3563 9.05972C15.3563 7.43179 13.9824 6.2034 12.4999 6.2034C11.0928 6.2034 10.292 7.22151 10.292 7.22151C10.6337 6.44347 14.1647 2.17476 14.778 1.91191L14.7727 1.91016Z" fill="#4285F4"></path>
    <path d="M6.74707 4.24651C7.85455 2.92875 9.79615 1.56543 12.4772 1.56543C13.7722 1.56543 14.7553 1.90889 14.7553 1.90889L10.2868 7.21849C9.9854 7.05499 7.04497 4.76521 6.74707 4.23951V4.24651Z" fill="#1A73E8"></path>
    <path d="M5.73073 12.6399C5.73073 12.6399 5 11.1889 5 9.10014C5 7.11999 5.77454 5.38517 6.75234 4.26367L10.2921 7.24265L5.73598 12.6399H5.73073Z" fill="#EA4335"></path>
  </symbol>
  <symbol fill="none" xmlns="http://www.w3.org/2000/svg" viewBox="0 0 42 42" id="gear">
    <circle cx="21" cy="21" r="3.5" stroke="#0077FF" stroke-width="3.5"></circle>
    <path d="M9.44718 10.2887C7.82014 12.0423 6.63868 14.1234 5.95076 16.3531L10.9996 19.268C12.3329 20.0378 12.3329 21.9623 10.9996 22.7321L5.94777 25.6488C6.28939 26.7513 6.75832 27.8333 7.3598 28.875C7.96125 29.9168 8.66375 30.8638 9.44776 31.711L14.4996 28.7943C15.8329 28.0245 17.4996 28.9867 17.4996 30.5263L17.4996 36.3563C19.7745 36.8753 22.1675 36.8927 24.4998 36.3605L24.4998 30.5265C24.4998 28.9869 26.1664 28.0246 27.4998 28.7944L32.5522 31.7114C34.1792 29.9578 35.3607 27.8767 36.0486 25.647L30.9997 22.732C29.6664 21.9622 29.6664 20.0377 30.9997 19.2679L36.0516 16.3512C35.71 15.2487 35.2411 14.1668 34.6396 13.125C34.0381 12.0833 33.3356 11.1362 32.5516 10.2891L27.4998 13.2057C26.1664 13.9755 24.4998 13.0133 24.4998 11.4737L24.4998 5.6438C22.2249 5.12474 19.8318 5.10735 17.4996 5.63958L17.4996 11.4736C17.4996 13.0132 15.8329 13.9755 14.4996 13.2057L9.44718 10.2887Z" stroke="#0077FF" stroke-width="3.5" stroke-linejoin="round"></path>
  </symbol>
  <symbol fill="none" xmlns="http://www.w3.org/2000/svg" viewBox="0 0 18 19" id="star">
    <g clip-path="url(#clip0_207_4569)">
      <path d="M8.26942 2.3515C8.53748 1.77034 9.36345 1.77034 9.63151 2.3515L11.348 6.07283C11.4572 6.30968 11.6817 6.47276 11.9407 6.50347L16.0103 6.98599C16.6459 7.06135 16.9011 7.84689 16.4312 8.28141L13.4225 11.0638C13.231 11.2409 13.1452 11.5048 13.1961 11.7606L13.9948 15.7802C14.1195 16.4079 13.4513 16.8934 12.8928 16.5808L9.3168 14.5791C9.08919 14.4517 8.81174 14.4517 8.58414 14.5791L5.00813 16.5808C4.44967 16.8934 3.78145 16.4079 3.90618 15.7802L4.70486 11.7606C4.75569 11.5048 4.66996 11.2409 4.47845 11.0638L1.46968 8.28141C0.999809 7.84689 1.25505 7.06135 1.89059 6.98599L5.96021 6.50347C6.21923 6.47276 6.44369 6.30968 6.55294 6.07283L8.26942 2.3515Z" fill="#FFA114"></path>
    </g>
    <defs>
      <clipPath id="clip0_207_4569">
        <rect width="18" height="18" fill="white" transform="translate(0 0.5)"></rect>
      </clipPath>
    </defs>
  </symbol>
  <symbol fill="none" xmlns="http://www.w3.org/2000/svg" viewBox="0 0 24 24" id="ym">
    <path d="M12 1.5C7.0293 1.5 3 5.5293 3 10.5C3 12.9845 4.00665 15.234 5.63475 16.8626C7.2633 18.492 11.1 20.85 11.325 23.325C11.3587 23.6961 11.6274 24 12 24C12.3726 24 12.6413 23.6961 12.675 23.325C12.9 20.85 16.7367 18.492 18.3652 16.8626C19.9933 15.234 21 12.9845 21 10.5C21 5.5293 16.9707 1.5 12 1.5Z" fill="#FF4433"></path>
    <path d="M12.0001 13.6506C13.7398 13.6506 15.1501 12.2403 15.1501 10.5006C15.1501 8.76089 13.7398 7.35059 12.0001 7.35059C10.2604 7.35059 8.8501 8.76089 8.8501 10.5006C8.8501 12.2403 10.2604 13.6506 12.0001 13.6506Z" fill="white"></path>
  </symbol>
  <symbol fill="none" xmlns="http://www.w3.org/2000/svg" viewBox="0 0 30 30" id="compare-gray">
    <g clip-path="url(#clip0_313_334)">
      <path d="M22.5 5L22.5 25M15 12.5L15 25M7.5 20L7.5 25" stroke="#7F8A9B" stroke-width="2.5" stroke-linecap="round" stroke-linejoin="round"></path>
    </g>
    <defs>
      <clipPath id="clip0_313_334">
        <rect width="30" height="30" fill="white"></rect>
      </clipPath>
    </defs>
  </symbol>
  <symbol fill="none" xmlns="http://www.w3.org/2000/svg" viewBox="0 0 30 30" id="like-gray">
    <g clip-path="url(#clip0_313_338)">
      <path d="M23.8388 16.4277L16.7678 23.4988C15.7914 24.4751 14.2085 24.4751 13.2322 23.4988L6.16115 16.4277C3.72037 13.9869 3.72037 10.0297 6.16115 7.58888C8.60193 5.14811 12.5592 5.14811 15 7.58888C17.4408 5.14811 21.398 5.14811 23.8388 7.58888C26.2796 10.0297 26.2796 13.9869 23.8388 16.4277Z" stroke="#7F8A9B" stroke-width="2.5" stroke-linecap="round" stroke-linejoin="round"></path>
    </g>
    <defs>
      <clipPath id="clip0_313_338">
        <rect width="30" height="30" fill="white"></rect>
      </clipPath>
    </defs>
  </symbol>
    <symbol fill="none" xmlns="http://www.w3.org/2000/svg" viewBox="0 0 28 29" id="wa1">
    <path d="M0.405933 14.5606C0.405074 16.9722 1.03598 19.3267 2.23561 21.4024L0.291016 28.4938L7.55685 26.591C9.55874 27.6805 11.8126 28.2557 14.1065 28.2565H14.1124C21.6664 28.2565 27.8149 22.117 27.8182 14.5714C27.8196 10.9146 26.3952 7.47662 23.8074 4.88962C21.2199 2.30298 17.7787 0.877693 14.1118 0.875977C6.55744 0.875977 0.408865 7.01465 0.405591 14.5607L0.405933 14.5606ZM14.1122 28.2564H14.1124H14.1122C14.1121 28.2564 14.1119 28.2564 14.1122 28.2564Z" fill="white"></path>
    <path fill-rule="evenodd" clip-rule="evenodd" d="M10.5659 8.62928C10.3001 8.0392 10.0205 8.02739 9.76768 8.01701C9.56079 8.00822 9.32418 8.0088 9.08784 8.0088C8.85121 8.0088 8.46688 8.09748 8.14189 8.45205C7.81662 8.80663 6.90015 9.66376 6.90015 11.407C6.90015 13.1504 8.17152 14.8349 8.34865 15.0715C8.52608 15.3077 10.8029 18.9995 14.4084 20.4196C17.4052 21.5999 18.015 21.3652 18.6654 21.306C19.3159 21.247 20.7644 20.4492 21.0599 19.6218C21.3556 18.7945 21.3556 18.0854 21.2669 17.9373C21.1783 17.7896 20.9416 17.7009 20.5869 17.5239C20.232 17.3466 18.488 16.4894 18.1629 16.3711C17.8376 16.253 17.6011 16.1941 17.3645 16.5488C17.128 16.9031 16.4486 17.7009 16.2415 17.9373C16.0346 18.1741 15.8276 18.2036 15.4729 18.0264C15.118 17.8486 13.9754 17.4748 12.62 16.2679C11.5654 15.3287 10.8535 14.1689 10.6464 13.8142C10.4395 13.4599 10.6243 13.268 10.8022 13.0913C10.9616 12.9325 11.1571 12.6776 11.3345 12.4708C11.5115 12.2639 11.5706 12.1162 11.6888 11.8799C11.8072 11.6434 11.748 11.4365 11.6594 11.2592C11.5706 11.082 10.8812 9.32982 10.5657 8.62918" fill="#1BC100"></path>
  </symbol>
  <symbol fill="none" xmlns="http://www.w3.org/2000/svg" viewBox="0 0 30 30" id="tg-1">
    <path d="M14.8182 29.1819C22.751 29.1819 29.1819 22.751 29.1819 14.8182C29.1819 6.88541 22.751 0.45459 14.8182 0.45459C6.88541 0.45459 0.45459 6.88541 0.45459 14.8182C0.45459 22.751 6.88541 29.1819 14.8182 29.1819Z" fill="white"></path>
    <path fill-rule="evenodd" clip-rule="evenodd" d="M6.95638 14.6667C11.1437 12.8423 13.9359 11.6396 15.3329 11.0585C19.3219 9.39939 20.1507 9.11118 20.691 9.10166C20.8098 9.09957 21.0755 9.12902 21.2476 9.26866C21.3929 9.38657 21.4329 9.54585 21.452 9.65765C21.4711 9.76944 21.4949 10.0241 21.476 10.2231C21.2598 12.4943 20.3245 18.006 19.8487 20.5498C19.6473 21.6262 19.2509 21.9871 18.8671 22.0224C18.0329 22.0992 17.3995 21.4712 16.5916 20.9416C15.3275 20.1129 14.6133 19.597 13.3862 18.7884C11.968 17.8539 12.8873 17.3402 13.6955 16.5008C13.907 16.2811 17.5822 12.9383 17.6533 12.635C17.6622 12.5971 17.6705 12.4557 17.5865 12.3811C17.5025 12.3064 17.3786 12.332 17.2891 12.3523C17.1623 12.381 15.1428 13.7159 11.2305 16.3568C10.6572 16.7504 10.138 16.9422 9.67277 16.9322C9.15992 16.9211 8.17339 16.6422 7.44001 16.4038C6.54048 16.1114 5.82556 15.9568 5.88781 15.4602C5.92024 15.2016 6.27643 14.9371 6.95638 14.6667Z" fill="#49BEFF"></path>
  </symbol>
  <symbol fill="none" xmlns="http://www.w3.org/2000/svg" viewBox="0 0 31 31" id="vk-1">
    <path d="M0.969727 15.2243C0.969727 8.5046 0.969727 5.14479 3.05726 3.05726C5.14479 0.969727 8.5046 0.969727 15.2243 0.969727H16.4122C23.1319 0.969727 26.4916 0.969727 28.5792 3.05726C30.6667 5.14479 30.6667 8.5046 30.6667 15.2243V16.4122C30.6667 23.1319 30.6667 26.4916 28.5792 28.5792C26.4916 30.6667 23.1319 30.6667 16.4122 30.6667H15.2243C8.5046 30.6667 5.14479 30.6667 3.05726 28.5792C0.969727 26.4916 0.969727 23.1319 0.969727 16.4122V15.2243Z" fill="white"></path>
    <path d="M16.771 22.3638C10.0026 22.3638 6.14206 17.7237 5.9812 10.0024H9.37161C9.48297 15.6696 11.9824 18.0701 13.9622 18.5651V10.0024H17.1548V14.8901C19.1098 14.6797 21.1636 12.4524 21.8565 10.0024H25.049C24.517 13.0216 22.2897 15.2489 20.7058 16.1646C22.2897 16.907 24.8264 18.8497 25.7916 22.3638H22.2773C21.5225 20.0128 19.6419 18.1939 17.1548 17.9464V22.3638H16.771Z" fill="#0F83FF"></path>
  </symbol>
</svg>